<svg xmlns="http://www.w3.org/2000/svg" class="hide"><symbol id="amazon" viewBox="0 0 24 24"><path d="M0 0h24v24H0z"/><path d="M13.582 8.182c-1.648.185-3.802.308-5.344.984-1.78.77-3.03 2.337-3.03 4.644 0 2.953 1.86 4.43 4.253 4.43 2.02 0 3.126-.478 4.686-2.066.516.747.685 1.11 1.63 1.894.21.114.482.103.67-.066l.007.006c.567-.505 1.6-1.4 2.18-1.888.23-.188.19-.496.01-.754-.52-.718-1.073-1.303-1.073-2.634V8.305c0-1.876.133-3.6-1.25-4.89C15.23 2.368 13.423 2 12.04 2 9.336 2 6.318 3.01 5.686 6.35c-.068.356.19.543.423.595l2.753.298c.258-.013.445-.266.494-.523.236-1.15 1.2-1.706 2.284-1.706.585 0 1.25.215 1.596.738.398.584.346 1.384.346 2.06v.37zm-.533 5.906c-.452.8-1.17 1.29-1.968 1.29-1.09 0-1.728-.83-1.728-2.06 0-2.42 2.17-2.86 4.227-2.86v.615c.002 1.108.028 2.03-.53 3.015zm7.633 5.25C18.33 21.077 14.917 22 11.98 22c-4.12 0-7.827-1.522-10.633-4.057-.22-.2-.024-.47.24-.317 3.028 1.762 6.772 2.823 10.64 2.823 2.608 0 5.476-.542 8.115-1.66.397-.17.73.26.34.55zm.653 1.705c-.194.163-.38.076-.293-.14.284-.71.92-2.297.62-2.683-.302-.386-1.99-.183-2.75-.092-.23.027-.266-.173-.06-.32 1.35-.945 3.556-.672 3.812-.355.26.32-.066 2.533-1.33 3.59z"/></symbol><symbol id="behance" viewBox="0 0 24 24"><path d="M0 0h24v24H0z"/><path d="M7.8 5.698c.588 0 1.12.05 1.605.156.482.102.894.273 1.24.507.345.236.613.547.805.94.188.386.28.87.28 1.442 0 .62-.14 1.137-.42 1.55-.284.414-.7.752-1.255 1.015.756.218 1.317.6 1.69 1.146.373.55.556 1.205.556 1.975 0 .623-.12 1.16-.358 1.612-.24.457-.57.828-.973 1.114-.41.288-.877.5-1.4.637-.518.14-1.056.21-1.607.21H2V5.698h5.8m-.35 4.97c.48 0 .877-.114 1.19-.345.312-.228.464-.603.464-1.12 0-.285-.05-.522-.152-.706a1.116 1.116 0 0 0-.416-.427 1.733 1.733 0 0 0-.596-.216 3.616 3.616 0 0 0-.697-.06H4.71v2.874h2.74zm.15 5.237c.267 0 .52-.024.76-.077.242-.053.456-.137.636-.26.182-.12.332-.284.44-.492.11-.206.164-.474.164-.798 0-.633-.18-1.084-.533-1.357-.356-.27-.83-.403-1.413-.403H4.71v3.388H7.6zm8.562-.04c.367.357.897.537 1.583.537.493 0 .92-.125 1.277-.374.354-.248.57-.514.654-.79h2.155c-.346 1.072-.87 1.838-1.588 2.3-.708.462-1.572.692-2.58.692-.7 0-1.332-.113-1.9-.337a4.046 4.046 0 0 1-1.438-.958 4.333 4.333 0 0 1-.904-1.484 5.427 5.427 0 0 1-.32-1.898c0-.666.11-1.288.33-1.863.22-.578.528-1.076.932-1.493.406-.42.885-.75 1.444-.994a4.646 4.646 0 0 1 1.857-.363c.754 0 1.414.145 1.98.44a3.95 3.95 0 0 1 1.39 1.18 4.87 4.87 0 0 1 .782 1.69c.16.633.217 1.293.17 1.984H15.56c0 .706.237 1.372.604 1.73m2.81-4.68c-.29-.32-.782-.496-1.383-.496-.39 0-.715.066-.974.2-.254.132-.46.297-.62.49a1.786 1.786 0 0 0-.33.63 2.73 2.73 0 0 0-.11.586h3.98c-.058-.625-.27-1.085-.563-1.41zm-3.915-3.446h4.985V6.524h-4.985v1.214z"/></symbol><symbol id="blogger-alt" viewBox="0 0 24 24"><path d="M0 0h24v24H0z"/><path d="M19.78 9.904h-1.002a1.16 1.16 0 0 1-1.16-1.078l-.002-.013A5.813 5.813 0 0 0 11.803 3H8.87a5.81 5.81 0 0 0-5.81 5.813v6.375A5.809 5.809 0 0 0 8.87 21h6.258a5.813 5.813 0 0 0 5.813-5.812l.003-4.12c0-.644-.522-1.164-1.164-1.164zM8.725 7.714h3.29a1.117 1.117 0 1 1 .001 2.233h-3.29a1.117 1.117 0 0 1-.002-2.234zm6.6 8.656H8.72a1.057 1.057 0 1 1 0-2.114h6.607a1.057 1.057 0 1 1 0 2.114z"/></symbol><symbol id="blogger" viewBox="0 0 24 24"><path d="M0 0h24v24H0z"/><path d="M14.722 14.02c0 .36-.293.653-.654.653h-4.09a.654.654 0 1 1-.001-1.309h4.09c.362 0 .655.293.655.654zm-4.74-3.322h2.037a.692.692 0 0 0 0-1.384H9.98a.692.692 0 0 0 0 1.384zM21 5v14a2 2 0 0 1-2 2H5a2 2 0 0 1-2-2V5a2 2 0 0 1 2-2h14a2 2 0 0 1 2 2zm-3.456 6.39a.72.72 0 0 0-.72-.72h-.62a.719.719 0 0 1-.718-.667v-.008a3.6 3.6 0 0 0-3.6-3.6H10.07a3.6 3.6 0 0 0-3.6 3.6v3.947a3.6 3.6 0 0 0 3.6 3.6h3.874a3.6 3.6 0 0 0 3.6-3.6V11.39z"/></symbol><symbol id="codepen" viewBox="0 0 24 24"><path d="M0 0h24v24H0z"/><path d="M22.016 8.84l-.007-.037-.016-.072c-.003-.014-.01-.027-.013-.04l-.022-.063-.02-.042a.391.391 0 0 0-.03-.057.357.357 0 0 0-.025-.038l-.035-.052-.03-.037-.043-.044c-.01-.012-.022-.023-.035-.035-.015-.014-.032-.027-.048-.04l-.037-.03c-.005-.002-.01-.007-.015-.01l-9.16-6.097a.865.865 0 0 0-.956 0L2.36 8.237c-.006.003-.01.008-.016.012l-.038.027-.048.04a.638.638 0 0 0-.078.082c-.012.012-.022.022-.03.036-.01.017-.025.035-.035.052l-.025.038-.03.06-.02.04a.66.66 0 0 0-.02.064.259.259 0 0 0-.014.042c-.007.023-.01.046-.016.07 0 .015-.005.026-.006.038a.742.742 0 0 0-.01.114v6.093c0 .037.004.075.01.112 0 .01.004.024.006.037.005.023.008.047.015.072.003.014.008.027.013.04.007.02.013.04.022.062l.02.04a.4.4 0 0 0 .055.096l.035.052.03.037a.603.603 0 0 0 .042.045l.035.035c.015.013.032.028.048.04l.038.03.013.01 9.163 6.095a.858.858 0 0 0 .958.004l9.163-6.095.016-.01c.013-.01.027-.02.037-.03a.328.328 0 0 0 .048-.04.195.195 0 0 0 .036-.034c.017-.015.03-.032.043-.045l.03-.036.034-.052.025-.038.03-.058c.006-.013.012-.027.02-.04l.022-.063c.003-.013.01-.027.013-.04.007-.025.01-.048.015-.072l.007-.036c.003-.042.007-.08.007-.117V8.954a.72.72 0 0 0-.008-.114zm-9.154-4.376l6.75 4.49-3.015 2.013-3.735-2.492v-4.01zm-1.724 0v4.01l-3.735 2.493L4.39 8.954l6.748-4.49zm-7.44 6.098L5.854 12l-2.155 1.438v-2.876zm7.44 8.974l-6.75-4.49 3.016-2.012 3.735 2.492v4.01zm.862-5.5L8.953 12 12 9.966 15.047 12 12 14.035zm.862 5.5v-4.01l3.735-2.49 3.016 2.01-6.75 4.49zm7.44-6.098L18.148 12l2.156-1.438v2.876z"/></symbol><symbol id="dribbble" viewBox="0 0 24 24"><path d="M0 0h24v24H0z"/><path d="M12 22C6.486 22 2 17.514 2 12S6.486 2 12 2s10 4.486 10 10-4.486 10-10 10zm8.434-8.63c-.292-.093-2.644-.795-5.32-.366 1.117 3.07 1.572 5.57 1.66 6.09a8.561 8.561 0 0 0 3.66-5.725zm-5.098 6.506c-.127-.75-.623-3.36-1.822-6.477-.02.005-.038.012-.056.018-4.818 1.68-6.547 5.02-6.7 5.334A8.489 8.489 0 0 0 12 20.554c1.183 0 2.31-.242 3.336-.68zm-9.682-2.152c.193-.33 2.538-4.213 6.943-5.637.11-.036.224-.07.337-.102-.214-.485-.448-.97-.692-1.45-4.266 1.277-8.405 1.223-8.778 1.216a8.497 8.497 0 0 0 2.19 5.974zm-2.015-7.46c.38.005 3.9.02 7.896-1.04A54.347 54.347 0 0 0 8.37 4.283a8.568 8.568 0 0 0-4.73 5.98zM9.997 3.71a45.482 45.482 0 0 1 3.187 5c3.037-1.14 4.323-2.868 4.477-3.086A8.504 8.504 0 0 0 9.998 3.71zm8.614 2.902c-.18.243-1.612 2.078-4.77 3.367.2.406.39.82.567 1.236l.183.44c2.842-.356 5.666.216 5.948.276a8.502 8.502 0 0 0-1.928-5.32z"/></symbol><symbol id="dropbox" viewBox="0 0 24 24"><path d="M0 0h24v24H0z"/><path d="M12 6.134L6.07 9.797 2 6.54l5.883-3.843L12 6.134zm-10 6.92l5.883 3.843L12 13.46 6.07 9.796 2 13.054zm10 .405l4.116 3.438L22 13.054l-4.07-3.257L12 13.46zm10-6.92l-5.884-3.843L12 6.134l5.93 3.663L22 6.54zm-9.99 7.66l-4.128 3.426-1.767-1.153v1.29l5.896 3.54 5.898-3.54v-1.29l-1.77 1.153-4.127-3.426z"/></symbol><symbol id="eventbrite" viewBox="0 0 24 24"><path d="M0 0h24v24H0z"/><path d="M18.04 3.93L5.96 3A2.96 2.96 0 0 0 3 5.96v12.08A2.96 2.96 0 0 0 5.96 21l12.082-.93C19.7 19.982 21 18.743 21 17.11V6.89c0-1.634-1.26-2.863-2.96-2.96zm-1.107 4.24c-.082.215-.192.432-.378.55-.188.123-.49.133-.8.133-1.52 0-3.06-.048-4.606-.048-.153.708-.305 1.416-.452 2.128.932-.004 1.873.005 2.81.005.726 0 1.462-.07 1.586.525.04.19 0 .426-.052.615-.105.38-.258.676-.625.783-.185.055-.408.06-.646.06-1.144 0-2.344.016-3.492.02-.17.77-.328 1.552-.49 2.332 1.57-.005 3.068-.04 4.634-.058.627-.007 1.085.194 1.01.85a2.22 2.22 0 0 1-.212.725c-.102.207-.248.375-.488.45-.237.076-.54.065-.862.08-.304.013-.614.007-.924.015-.31.01-.62.022-.92.022-1.252 0-2.428.08-3.682.073-.603-.004-1.014-.25-1.124-.757-.06-.273-.018-.58.036-.84.54-2.593 1.083-5.177 1.63-7.764.055-.266.113-.512.224-.715.17-.304.424-.52.79-.62.368-.1.883-.047 1.344-.047.305 0 .612.008.914.016.925.026 1.817.03 2.747.053.304.007.615.016.915.016.62 0 1.17.073 1.245.614.04.288-.05.567-.132.783z" fill-rule="evenodd" clip-rule="evenodd"/></symbol><symbol id="facebook" viewBox="0 0 24 24"><path d="M0 0h24v24H0z"/><path d="M20.007 3H3.993A.994.994 0 0 0 3 3.993v16.013c0 .55.445.994.993.994h8.62v-6.97H10.27v-2.72h2.346v-2c0-2.325 1.42-3.59 3.494-3.59.993 0 1.847.073 2.096.106v2.43h-1.438c-1.128 0-1.346.537-1.346 1.324v1.734h2.69l-.35 2.717h-2.34V21h4.587a.994.994 0 0 0 .993-.993V3.993A.994.994 0 0 0 20.009 3z"/></symbol><symbol id="feed" viewBox="0 0 24 24"><path d="M0 0h24v24H0z"/><path d="M2 8.667V12c5.515 0 10 4.485 10 10h3.333c0-7.363-5.97-13.333-13.333-13.333zM2 2v3.333c9.19 0 16.667 7.477 16.667 16.667H22C22 10.955 13.045 2 2 2zm2.5 15a2.5 2.5 0 1 0 0 5 2.5 2.5 0 0 0 0-5z"/></symbol><symbol id="flickr" viewBox="0 0 24 24"><path d="M0 0h24v24H0z"/><path d="M6.5 7c-2.75 0-5 2.25-5 5s2.25 5 5 5 5-2.25 5-5-2.25-5-5-5zm11 0c-2.75 0-5 2.25-5 5s2.25 5 5 5 5-2.25 5-5-2.25-5-5-5z"/></symbol><symbol id="foursquare" viewBox="0 0 24 24"><path d="M0 0h24v24H0z"/><path d="M17.573 2H6.905S5 3.107 5 3.805v16.948c0 .785.422 1.077.66 1.172.238.097.892.177 1.285-.275 0 0 5.035-5.843 5.122-5.93.132-.132.132-.132.262-.132h3.26c1.367 0 1.587-.977 1.73-1.552.08-.318.693-3.428 1.226-6.122l.675-3.368C19.56 2.893 19.14 2 17.574 2zm-1.078 5.22c-.053.252-.372.518-.665.518h-4.157c-.467 0-.802.318-.802.787v.508c0 .467.338.798.806.798h3.528s.655.363.583.716c-.072.353-.407 2.102-.448 2.295-.04.194-.263.524-.656.524h-2.88c-.523 0-.683.068-1.033.503-.35.437-3.504 4.223-3.504 4.223-.032.035-.063.027-.063-.015V4.852c0-.298.26-.648.648-.648h8.563c.315 0 .61.297.528.683l-.445 2.333z"/></symbol><symbol id="ghost" viewBox="0 0 24 24"><path d="M0 0h24v24H0z"/><path d="M10.203 20.997H3.005v-3.6h7.198v3.6zm10.792-3.6h-7.193v3.6h7.193v-3.6zm.003-7.197H3v3.6h17.998v-3.6zm-7.195-7.197H3.005v3.6h10.798v-3.6zm7.197 0h-3.6v3.6H21v-3.6z"/></symbol><symbol id="github" viewBox="0 0 24 24"><path d="M0 0h24v24H0z"/><path d="M12 2C6.477 2 2 6.477 2 12c0 4.42 2.865 8.166 6.84 9.49.5.09.68-.22.68-.485 0-.236-.008-.866-.013-1.7-2.782.603-3.37-1.34-3.37-1.34-.454-1.156-1.11-1.464-1.11-1.464-.908-.62.07-.607.07-.607 1.004.07 1.532 1.03 1.532 1.03.89 1.53 2.34 1.09 2.91.833.09-.647.348-1.086.634-1.337-2.22-.252-4.555-1.112-4.555-4.944 0-1.09.39-1.984 1.03-2.682-.104-.254-.448-1.27.096-2.646 0 0 .84-.27 2.75 1.025a9.553 9.553 0 0 1 2.504-.337c.85.004 1.705.114 2.504.336 1.91-1.294 2.748-1.025 2.748-1.025.546 1.376.202 2.394.1 2.646.64.7 1.026 1.59 1.026 2.682 0 3.84-2.337 4.687-4.565 4.935.36.307.68.917.68 1.852 0 1.335-.013 2.415-.013 2.74 0 .27.18.58.688.482C19.138 20.16 22 16.416 22 12c0-5.523-4.477-10-10-10z"/></symbol><symbol id="google-plus-alt" viewBox="0 0 24 24"><path d="M0 0h24v24H0z"/><path d="M8 11h6.61c.06.35.11.7.11 1.16 0 4-2.68 6.84-6.72 6.84-3.87 0-7-3.13-7-7s3.13-7 7-7c1.89 0 3.47.69 4.69 1.83l-1.9 1.83c-.52-.5-1.43-1.08-2.79-1.08-2.39 0-4.34 1.98-4.34 4.42S5.61 16.42 8 16.42c2.77 0 3.81-1.99 3.97-3.02H8V11zm15 0h-2V9h-2v2h-2v2h2v2h2v-2h2"/></symbol><symbol id="google-plus" viewBox="0 0 24 24"><path d="M0 0h24v24H0z"/><path d="M12 2C6.477 2 2 6.477 2 12s4.477 10 10 10 10-4.477 10-10S17.523 2 12 2zm-1.92 14.05c-2.235 0-4.05-1.814-4.05-4.05s1.815-4.05 4.05-4.05c1.095 0 2.01.4 2.71 1.057l-1.15 1.118a2.23 2.23 0 0 0-1.56-.6c-1.34 0-2.433 1.115-2.433 2.48s1.094 2.48 2.434 2.48c1.552 0 2.123-1.074 2.228-1.71h-2.232v-1.51h3.79c.058.255.102.494.102.83 0 2.312-1.55 3.956-3.887 3.956zm8.92-3.3h-1.25V14h-1.5v-1.25H15v-1.5h1.25V10h1.5v1.25H19v1.5z"/></symbol><symbol id="instagram" viewBox="0 0 24 24"><path d="M0 0h24v24H0z"/><path d="M18.924 10.615h-1.567c.114.443.182.906.182 1.385a5.54 5.54 0 1 1-11.077 0c0-.48.068-.942.182-1.385h-1.57v7.616c0 .383.31.693.694.693h12.46c.383 0 .693-.31.693-.692v-7.615zm0-4.846a.693.693 0 0 0-.693-.693h-2.075a.692.692 0 0 0-.692.692v2.076c0 .382.31.692.692.692h2.076c.384 0 .694-.31.694-.692V5.77zM12 8.537a3.462 3.462 0 1 0 0 6.921 3.462 3.462 0 0 0 0-6.92M18.924 21H5.076A2.077 2.077 0 0 1 3 18.922V5.077C3 3.93 3.93 3 5.076 3h13.847C20.07 3 21 3.93 21 5.077v13.846C21 20.07 20.07 21 18.924 21" fill-rule="evenodd" clip-rule="evenodd"/></symbol><symbol id="linkedin" viewBox="0 0 24 24"><path d="M0 0h24v24H0z"/><path d="M19.7 3H4.3A1.3 1.3 0 0 0 3 4.3v15.4A1.3 1.3 0 0 0 4.3 21h15.4a1.3 1.3 0 0 0 1.3-1.3V4.3A1.3 1.3 0 0 0 19.7 3zM8.34 18.338H5.666v-8.59H8.34v8.59zM7.003 8.574a1.549 1.549 0 1 1-.004-3.098 1.549 1.549 0 0 1 .005 3.098zm11.335 9.764h-2.67V14.16c0-.995-.017-2.277-1.387-2.277-1.39 0-1.6 1.086-1.6 2.206v4.248h-2.668v-8.59h2.56v1.174h.036c.357-.675 1.228-1.387 2.527-1.387 2.703 0 3.203 1.78 3.203 4.092v4.71z"/></symbol><symbol id="mail" viewBox="0 0 24 24"><path d="M0 0h24v24H0z"/><path d="M20 4H4a2 2 0 0 0-2 2v12a2 2 0 0 0 2 2h16a2 2 0 0 0 2-2V6a2 2 0 0 0-2-2zm0 4.236l-8 4.882-8-4.882V6h16v2.236z"/></symbol><symbol id="medium" viewBox="0 0 24 24"><path d="M0 0h24v24H0z"/><path d="M20.962 7.257l-5.457 8.867-3.923-6.375 3.126-5.08a.62.62 0 0 1 .79-.227l5.43 2.716.006.002.01.008c.027.02.036.057.018.087zM9.86 8.592v5.783l5.14 2.57-5.14-8.353zm5.912 8.74l4.23 2.114c.552.275.998.083.998-.43V8.836l-5.228 8.495zM8.968 7.177l-5.303-2.65a.585.585 0 0 0-.27-.072c-.232 0-.395.18-.395.482v11.45c0 .306.224.67.498.806l4.67 2.335a.76.76 0 0 0 .338.087c.29 0 .494-.225.494-.602V7.23a.058.058 0 0 0-.032-.052z"/></symbol><symbol id="path-alt" viewBox="0 0 24 24"><path d="M0 0h24v24H0z"/><path d="M17.19 16.38c-.676.338-1.536.6-2.317.6-.86 0-1.77-.027-2.577-.417v1.77c0 2.29-.99 3.672-3.385 3.672-.676 0-1.98-.21-2.37-.833V18.36c.365.415.938.702 1.51.702.626 0 .99-.364.99-.99V8.334h3.255v5.728a5.19 5.19 0 0 0 1.666.26c2.084 0 3.83-1.406 3.83-3.594 0-3.41-2.944-4.738-5.964-4.738-2.813 0-5.73 1.64-5.73 4.764 0 .964.21 1.745.887 2.448l-2.37 2.03C3.313 13.803 3 12.657 3 10.756c0-4.947 4.114-7.76 8.722-7.76 4.66 0 9.322 2.396 9.322 7.604 0 2.603-1.535 4.686-3.853 5.78z"/></symbol><symbol id="path" viewBox="0 0 24 24"><path d="M0 0h24v24H0z"/><path d="M19 3H5a2 2 0 0 0-2 2v14a2 2 0 0 0 2 2h14a2 2 0 0 0 2-2V5a2 2 0 0 0-2-2zm-4.08 11.19c-.383.192-.868.34-1.31.34-.484 0-1-.016-1.455-.236v1c0 1.294-.56 2.073-1.912 2.073-.383 0-1.118-.118-1.338-.47v-1.59c.206.236.53.398.853.398.353 0 .56-.205.56-.56v-5.5h1.838v3.236c.31.104.618.148.94.148 1.178 0 2.163-.794 2.163-2.03 0-1.927-1.663-2.676-3.37-2.676-1.588 0-3.235.926-3.235 2.69 0 .545.118.986.5 1.384l-1.34 1.147c-.734-.81-.91-1.456-.91-2.53 0-2.794 2.323-4.382 4.926-4.382 2.634 0 5.266 1.354 5.266 4.295 0 1.472-.868 2.65-2.176 3.266z"/></symbol><symbol id="pinterest-alt" viewBox="0 0 24 24"><path d="M0 0h24v24H0z"/><path d="M12.29 2C6.616 2 3.605 5.648 3.605 9.622c0 1.846 1.025 4.146 2.666 4.878.25.11.38.063.44-.17.043-.174.266-1.028.364-1.427a.366.366 0 0 0-.09-.362c-.54-.63-.976-1.79-.976-2.872 0-2.777 2.194-5.464 5.933-5.464 3.23 0 5.49 2.108 5.49 5.122 0 3.407-1.794 5.768-4.13 5.768-1.29 0-2.257-1.02-1.948-2.277.372-1.495 1.09-3.112 1.09-4.19 0-.968-.543-1.776-1.664-1.776-1.318 0-2.378 1.31-2.378 3.06 0 1.115.394 1.87.394 1.87s-1.302 5.278-1.54 6.26c-.405 1.666.053 4.368.094 4.604.02.126.167.17.25.063.13-.165 1.7-2.42 2.142-4.05.158-.59.817-2.996.817-2.996.43.785 1.68 1.447 3.012 1.447 3.963 0 6.822-3.494 6.822-7.833C20.394 5.112 16.85 2 12.29 2"/></symbol><symbol id="pinterest" viewBox="0 0 24 24"><path d="M0 0h24v24H0z"/><path d="M12 2C6.477 2 2 6.477 2 12c0 4.236 2.636 7.855 6.356 9.312-.087-.79-.166-2.005.035-2.87.183-.78 1.174-4.97 1.174-4.97s-.3-.6-.3-1.484c0-1.39.807-2.43 1.81-2.43.853 0 1.265.642 1.265 1.41 0 .858-.547 2.14-.83 3.33-.235.995.5 1.806 1.482 1.806 1.777 0 3.144-1.874 3.144-4.58 0-2.393-1.72-4.067-4.177-4.067-2.846 0-4.516 2.134-4.516 4.34 0 .86.33 1.78.744 2.282a.297.297 0 0 1 .07.286c-.078.316-.247.995-.28 1.134-.044.183-.145.222-.334.134-1.25-.58-2.03-2.407-2.03-3.874 0-3.154 2.292-6.05 6.607-6.05 3.47 0 6.166 2.47 6.166 5.774 0 3.446-2.173 6.22-5.19 6.22-1.012 0-1.965-.526-2.29-1.148l-.624 2.377c-.226.87-.835 1.957-1.243 2.622a9.98 9.98 0 0 0 2.96.445c5.523 0 10-4.477 10-10S17.523 2 12 2z"/></symbol><symbol id="pocket" viewBox="0 0 24 24"><path d="M0 0h24v24H0z"/><path d="M21.927 4.194A1.82 1.82 0 0 0 20.222 3H3.84a1.822 1.822 0 0 0-1.815 1.814v6.035l.07 1.2c.29 2.73 1.707 5.114 3.9 6.777l.118.09.025.017a9.89 9.89 0 0 0 3.91 1.727 10.025 10.025 0 0 0 4.05-.013.27.27 0 0 0 .063-.023 9.917 9.917 0 0 0 3.754-1.69l.025-.02c.04-.028.08-.057.118-.088 2.192-1.664 3.61-4.05 3.898-6.778l.07-1.2V4.814c0-.21-.026-.416-.1-.62zm-4.235 6.287l-4.704 4.513a1.373 1.373 0 0 1-1.898 0L6.385 10.48a1.37 1.37 0 0 1-.04-1.938 1.37 1.37 0 0 1 1.938-.04l3.756 3.6 3.754-3.6a1.373 1.373 0 0 1 1.94.04 1.375 1.375 0 0 1-.042 1.94z"/></symbol><symbol id="polldaddy" viewBox="0 0 24 24"><path d="M0 0h24v24H0z"/><path d="M12 2C6.487 2 2 6.487 2 12c0 5.514 4.487 10 10 10 5.514 0 10-4.486 10-10 0-5.513-4.486-10-10-10zm.99 1.68c2.362.084 4.658 1.25 6.198 3.136.283.334.54.693.774 1.067a7.778 7.778 0 0 0-6.094-2.94 7.764 7.764 0 0 0-5.896 2.703c-.006.003-.01.01-.016.014l-.152.16-.03.03a6.12 6.12 0 0 0-1.634 4.167 6.15 6.15 0 0 0 6.143 6.143c.57 0 1.123-.082 1.65-.228-1.85.84-4.132.747-5.927-.324-1.84-1.09-3.17-3.11-3.433-5.313A7.386 7.386 0 0 1 6.69 6.137a8.349 8.349 0 0 1 6.3-2.457zm3.374 8.52c-.05-2.025-1.587-3.89-3.544-4.175-1.927-.343-3.917.857-4.45 2.66a3.67 3.67 0 0 0 .2 2.654c.39.8 1.066 1.45 1.893 1.758 1.664.654 3.63-.27 4.173-1.863.593-1.58-.396-3.423-1.94-3.776-1.52-.408-3.16.756-3.204 2.242a2.37 2.37 0 0 0 .753 1.88c.5.475 1.23.666 1.87.528a2.069 2.069 0 0 0 1.47-1.134c.27-.576.22-1.256-.087-1.767-.297-.514-.86-.864-1.43-.882-.57-.03-1.12.246-1.436.68a1.523 1.523 0 0 0-.18 1.488c.004.01.01.02.016.03.193.634.774 1.1 1.467 1.117-.33.04-.674-.02-.97-.183-.466-.244-.81-.747-.893-1.29a1.801 1.801 0 0 1 .5-1.54c.398-.412.988-.65 1.58-.605a2.03 2.03 0 0 1 1.516.86c.364.495.51 1.155.383 1.772-.115.62-.528 1.174-1.092 1.514a2.516 2.516 0 0 1-1.914.287c-.65-.16-1.226-.606-1.584-1.206a2.816 2.816 0 0 1-.34-2.03c.142-.7.572-1.32 1.175-1.753 1.193-.883 3.056-.75 4.106.41 1.107 1.1 1.328 3.028.407 4.372-.877 1.375-2.74 2.085-4.374 1.593-1.64-.45-2.913-2.08-3.03-3.853-.07-.884.13-1.797.582-2.577.443-.775 1.153-1.431 1.97-1.861 1.64-.88 3.816-.742 5.35.425 1.25.924 2.082 2.42 2.235 4.01v.03c0 2.9-2.358 5.26-5.26 5.26a5.216 5.216 0 0 1-1.946-.377 5 5 0 0 0 2.613-.08 4.949 4.949 0 0 0 2.513-1.75c.618-.828.95-1.86.9-2.87zM12 21.112c-5.024 0-9.11-4.087-9.11-9.113 0-4.79 3.712-8.723 8.41-9.08a5.277 5.277 0 0 0-.397.06c-2.644.452-5.017 2.105-6.32 4.408-1.31 2.3-1.39 5.19-.3 7.527 1.056 2.34 3.253 4.156 5.776 4.553 2.496.44 5.132-.483 6.786-2.3 1.72-1.798 2.27-4.53 1.486-6.797-.583-1.81-1.976-3.33-3.7-4.045 3.417.594 6.174 3.22 6.174 6.78 0 1.005-.24 2.02-.657 2.967-1.5 2.984-4.587 5.04-8.15 5.04z"/></symbol><symbol id="print" viewBox="0 0 24 24"><path d="M0 0h24v24H0z"/><path d="M9 16h6v2H9v-2zm13 1h-3v3a2 2 0 0 1-2 2H7a2 2 0 0 1-2-2v-3H2V9a2 2 0 0 1 2-2h1V5a2 2 0 0 1 2-2h10a2 2 0 0 1 2 2v2h1a2 2 0 0 1 2 2v8zM7 7h10V5H7v2zm10 7H7v6h10v-6zm3-3.5a1.5 1.5 0 1 0-3.001.001A1.5 1.5 0 0 0 20 10.5z"/></symbol><symbol id="reddit" viewBox="0 0 24 24"><path d="M0 0h24v24H0z"/><path d="M22 11.816a2.278 2.278 0 0 0-2.277-2.277c-.593 0-1.122.24-1.526.613-1.48-.965-3.455-1.594-5.647-1.69l1.17-3.702 3.18.75a1.878 1.878 0 1 0 1.877-1.894c-.77 0-1.43.466-1.72 1.13L13.55 3.92a.385.385 0 0 0-.46.26l-1.35 4.27c-2.317.037-4.412.67-5.97 1.67a2.244 2.244 0 0 0-1.493-.58A2.277 2.277 0 0 0 2 11.815c0 .814.433 1.523 1.078 1.925-.037.222-.06.445-.06.673 0 3.292 4.01 5.97 8.94 5.97s8.94-2.678 8.94-5.97c0-.214-.02-.424-.052-.632A2.257 2.257 0 0 0 22 11.817zm-3.224-7.422a1.1 1.1 0 1 1-.001 2.199 1.1 1.1 0 0 1 .001-2.199zm-16 7.422c0-.827.673-1.5 1.5-1.5.313 0 .598.103.838.27-.85.675-1.477 1.478-1.812 2.36a1.482 1.482 0 0 1-.525-1.13zm9.183 7.79c-4.502 0-8.165-2.33-8.165-5.193S7.457 9.22 11.96 9.22s8.163 2.33 8.163 5.193-3.663 5.193-8.164 5.193zM20.635 13c-.326-.89-.948-1.7-1.797-2.383.247-.186.55-.3.882-.3.827 0 1.5.672 1.5 1.5 0 .482-.23.91-.586 1.184zm-11.64 1.704c-.76 0-1.397-.616-1.397-1.376 0-.76.636-1.397 1.396-1.397.76 0 1.376.638 1.376 1.398 0 .76-.616 1.376-1.376 1.376zm7.405-1.376c0 .76-.615 1.376-1.375 1.376s-1.4-.616-1.4-1.376c0-.76.64-1.397 1.4-1.397.76 0 1.376.638 1.376 1.398zm-1.17 3.38c.15.152.15.398 0 .55-.675.674-1.728 1.002-3.22 1.002l-.01-.002-.012.002c-1.492 0-2.544-.328-3.218-1.002a.389.389 0 1 1 .55-.55c.52.52 1.394.775 2.67.775l.01.002.01-.002c1.276 0 2.15-.253 2.67-.775a.389.389 0 0 1 .55 0z"/></symbol><symbol id="share" viewBox="0 0 24 24"><path d="M0 0h24v24H0z"/><path d="M18 16c-.788 0-1.5.31-2.034.807L8.91 12.7c.05-.23.09-.46.09-.7s-.04-.47-.09-.7l7.05-4.11c.54.5 1.25.81 2.04.81 1.66 0 3-1.34 3-3s-1.34-3-3-3-3 1.34-3 3c0 .24.04.47.09.7L8.04 9.81C7.5 9.31 6.79 9 6 9c-1.66 0-3 1.34-3 3s1.34 3 3 3c.79 0 1.5-.31 2.04-.81l7.048 4.118A2.981 2.981 0 0 0 15 19a3 3 0 1 0 3-3z"/></symbol><symbol id="skype" viewBox="0 0 24 24"><path d="M0 0h24v24H0z"/><path d="M10.113 2.7l.1-.02c.033.016.066.032.098.05l-.197-.03zM2.72 10.222c-.006.034-.01.07-.017.103.018.032.033.064.05.095l-.033-.197zm18.555 3.548c.007-.034.01-.07.018-.105-.018-.03-.033-.064-.052-.095l.035.2zm-7.712 7.43c.032.018.065.034.096.052.035-.006.07-.01.104-.017l-.2-.036zM22 16.385c0 1.494-.58 2.898-1.637 3.953a5.553 5.553 0 0 1-3.953 1.636c-.967 0-1.914-.25-2.75-.725l.105-.016-.202-.035c.032.018.065.034.096.052-.544.096-1.1.147-1.655.147a9.358 9.358 0 0 1-3.676-.744 9.374 9.374 0 0 1-3.003-2.023 9.397 9.397 0 0 1-2.023-3.002 9.366 9.366 0 0 1-.743-3.675c0-.546.05-1.093.143-1.628.018.032.033.064.05.095l-.033-.2c-.006.035-.01.07-.017.104A5.57 5.57 0 0 1 2 7.616c0-1.494.582-2.9 1.637-3.954A5.555 5.555 0 0 1 7.59 2.024c.915 0 1.818.228 2.622.655-.033.006-.067.012-.1.02l.2.03c-.033-.018-.067-.034-.1-.05.003 0 .004-.002.005-.002a9.544 9.544 0 0 1 1.788-.17 9.423 9.423 0 0 1 6.679 2.768 9.4 9.4 0 0 1 2.024 3.002 9.37 9.37 0 0 1 .743 3.676c0 .575-.054 1.15-.157 1.712-.018-.03-.033-.064-.052-.095l.035.2c.007-.034.01-.07.018-.105.46.83.707 1.767.707 2.72zm-5.183-2.248c0-1.33-.613-2.743-3.033-3.282l-2.21-.49c-.84-.192-1.806-.444-1.806-1.237 0-.795.68-1.35 1.903-1.35 2.47 0 2.244 1.697 3.47 1.697.644 0 1.208-.38 1.208-1.03 0-1.522-2.435-2.664-4.5-2.664-2.242 0-4.63.952-4.63 3.488 0 1.222.436 2.522 2.84 3.124l2.983.745c.904.222 1.13.73 1.13 1.188 0 .762-.758 1.507-2.13 1.507-2.678 0-2.306-2.062-3.742-2.062-.645 0-1.113.444-1.113 1.078 0 1.237 1.5 2.887 4.856 2.887 3.196 0 4.777-1.538 4.777-3.6z"/></symbol><symbol id="spotify" viewBox="0 0 24 24"><path d="M0 0h24v24H0z"/><path d="M12 2C6.477 2 2 6.477 2 12s4.477 10 10 10 10-4.477 10-10S17.523 2 12 2m4.586 14.424a.622.622 0 0 1-.857.207c-2.35-1.434-5.305-1.76-8.786-.963a.622.622 0 1 1-.276-1.215c3.808-.87 7.076-.496 9.712 1.115.293.18.386.563.206.857M17.81 13.7a.78.78 0 0 1-1.072.257c-2.687-1.652-6.785-2.13-9.965-1.166a.778.778 0 1 1-.453-1.49c3.632-1.102 8.147-.568 11.234 1.328.366.226.48.707.256 1.072m.105-2.835C14.692 8.95 9.375 8.775 6.297 9.71a.936.936 0 0 1-.541-1.791c3.532-1.073 9.404-.866 13.115 1.337a.936.936 0 1 1-.955 1.607"/></symbol><symbol id="squarespace" viewBox="0 0 24 24"><path d="M0 0h24v24H0z"/><path d="M20.87 9.27a3.862 3.862 0 0 0-5.458 0l-6.14 6.142a.964.964 0 1 0 1.364 1.364l6.14-6.14a1.93 1.93 0 1 1 2.73 2.73l-6.023 6.02a1.928 1.928 0 0 0 2.73 0l4.657-4.657a3.862 3.862 0 0 0 0-5.46zm-2.047 2.048a.965.965 0 0 0-1.365 0l-6.14 6.14a1.93 1.93 0 0 1-2.73 0 .964.964 0 1 0-1.363 1.364 3.86 3.86 0 0 0 5.458 0l6.14-6.14a.966.966 0 0 0 0-1.364zm-2.047-6.14a3.854 3.854 0 0 0-5.458 0l-6.14 6.14a.963.963 0 0 0 0 1.363.962.962 0 0 0 1.364 0l6.14-6.14a1.932 1.932 0 0 1 2.73 0 .963.963 0 1 0 1.365-1.363zM14.73 7.223a.965.965 0 0 0-1.365 0l-6.14 6.14a1.93 1.93 0 1 1-2.73-2.728l6.023-6.022a1.93 1.93 0 0 0-2.73 0L3.13 9.27a3.862 3.862 0 0 0 0 5.46 3.862 3.862 0 0 0 5.458 0l6.14-6.142a.962.962 0 0 0 0-1.364z"/></symbol><symbol id="stumbleupon" viewBox="0 0 24 24"><path d="M0 0h24v24H0z"/><path d="M12 4.294a4.47 4.47 0 0 0-4.47 4.47v6.354a1.06 1.06 0 0 1-2.12 0v-2.824H2v2.94a4.471 4.471 0 0 0 8.942.002v-6.47a1.06 1.06 0 1 1 2.118 0v1.293l1.412.646 2-.647V8.764A4.47 4.47 0 0 0 12 4.294zm1.06 8.06v2.88a4.47 4.47 0 1 0 8.94.002V12.41h-3.412v2.825a1.06 1.06 0 1 1-2.118 0v-2.882l-2 .647-1.41-.647z"/></symbol><symbol id="telegram" viewBox="0 0 24 24"><path d="M0 0h24v24H0z"/><path d="M12 2C6.477 2 2 6.477 2 12s4.477 10 10 10 10-4.477 10-10S17.523 2 12 2zm3.08 14.757s-.25.625-.936.325l-2.54-1.95-1.63 1.487s-.128.095-.267.035c0 0-.12-.01-.27-.486-.15-.476-.91-2.973-.91-2.973L6 12.35s-.387-.138-.425-.44c-.037-.3.437-.46.437-.46l10.03-3.935s.824-.362.824.238l-1.786 9.004z"/></symbol><symbol id="tumblr-alt" viewBox="0 0 24 24"><path d="M0 0h24v24H0z"/><path d="M16.75 17.396c-.358.17-1.042.32-1.552.332-1.54.04-1.837-1.08-1.85-1.896V9.847h3.86v-2.91h-3.846V2.04h-2.817c-.046 0-.127.04-.138.143-.165 1.5-.867 4.13-3.783 5.18V9.85H8.57v6.282c0 2.15 1.586 5.206 5.774 5.135 1.413-.024 2.982-.616 3.33-1.126l-.925-2.744z"/></symbol><symbol id="tumblr" viewBox="0 0 24 24"><path d="M0 0h24v24H0z"/><path d="M19 3H5a2 2 0 0 0-2 2v14a2 2 0 0 0 2 2h14a2 2 0 0 0 2-2V5a2 2 0 0 0-2-2zm-5.57 14.265c-2.445.042-3.37-1.742-3.37-2.998V10.6H8.922V9.15c1.703-.615 2.113-2.15 2.21-3.026.006-.06.053-.084.08-.084h1.645V8.9h2.246v1.7H12.85v3.495c.008.476.182 1.13 1.08 1.107.3-.008.698-.094.907-.194l.54 1.6c-.205.297-1.12.642-1.946.657z"/></symbol><symbol id="twitch" viewBox="0 0 24 24"><path d="M0 0h24v24H0z"/><path d="M16.5 8.09h-1.637V13H16.5V8.09zm-4.5 0h-1.637V13H12V8.09zM4.228 3.177L3 6.45v13.093h4.5V22h2.455l2.454-2.456h3.68L21 14.636V3.178H4.228zm15.136 10.638L16.5 16.68H12l-2.453 2.454V16.68H5.863V4.814h13.5v9.002z"/></symbol><symbol id="twitter-alt" viewBox="0 0 24 24"><path d="M0 0h24v24H0z"/><path d="M22.23 5.924a8.212 8.212 0 0 1-2.357.646 4.115 4.115 0 0 0 1.804-2.27c-.793.47-1.67.812-2.606.996a4.103 4.103 0 0 0-6.99 3.742 11.643 11.643 0 0 1-8.457-4.287 4.093 4.093 0 0 0-.556 2.064c0 1.424.724 2.68 1.825 3.415a4.111 4.111 0 0 1-1.86-.514v.052a4.105 4.105 0 0 0 3.293 4.023 4.056 4.056 0 0 1-1.853.071 4.108 4.108 0 0 0 3.833 2.85 8.237 8.237 0 0 1-5.096 1.757c-.332 0-.66-.02-.98-.057a11.617 11.617 0 0 0 6.29 1.843c7.547 0 11.675-6.252 11.675-11.675 0-.178-.004-.355-.012-.53a8.302 8.302 0 0 0 2.047-2.124z"/></symbol><symbol id="twitter" viewBox="0 0 24 24"><path d="M0 0h24v24H0z"/><path d="M19 3H5a2 2 0 0 0-2 2v14a2 2 0 0 0 2 2h14a2 2 0 0 0 2-2V5a2 2 0 0 0-2-2zm-2.534 6.71c.004.1.007.198.007.298 0 3.045-2.318 6.556-6.556 6.556-1.3 0-2.512-.38-3.532-1.035.18.02.364.03.55.03 1.08 0 2.073-.367 2.862-.985a2.307 2.307 0 0 1-2.152-1.6c.14.027.285.04.433.04.21 0 .414-.027.607-.08a2.306 2.306 0 0 1-1.848-2.26v-.028c.31.173.666.276 1.044.288a2.304 2.304 0 0 1-.712-3.076 6.542 6.542 0 0 0 4.75 2.406 2.304 2.304 0 0 1 3.926-2.1 4.58 4.58 0 0 0 1.463-.56c-.172.54-.537.99-1.013 1.276a4.62 4.62 0 0 0 1.323-.362c-.31.46-.7.867-1.15 1.192z"/></symbol><symbol id="vimeo" viewBox="0 0 24 24"><path d="M0 0h24v24H0z"/><path d="M22.396 7.164c-.093 2.026-1.507 4.8-4.245 8.32C15.323 19.16 12.93 21 10.97 21c-1.214 0-2.24-1.12-3.08-3.36-.56-2.052-1.118-4.105-1.68-6.158-.622-2.24-1.29-3.36-2.004-3.36-.156 0-.7.328-1.634.98l-.978-1.26c1.027-.903 2.04-1.806 3.037-2.71C6 3.95 7.03 3.328 7.716 3.265c1.62-.156 2.616.95 2.99 3.32.404 2.558.685 4.148.84 4.77.468 2.12.982 3.18 1.543 3.18.435 0 1.09-.687 1.963-2.064.872-1.376 1.34-2.422 1.402-3.142.125-1.187-.343-1.782-1.4-1.782-.5 0-1.013.115-1.542.34 1.023-3.35 2.977-4.976 5.862-4.883 2.14.063 3.148 1.45 3.024 4.16z"/></symbol><symbol id="whatsapp" viewBox="0 0 24 24"><path d="M0 0h24v24H0z"/><path d="M2.048 22l1.406-5.136A9.907 9.907 0 0 1 2.13 11.91C2.134 6.445 6.58 2 12.043 2c2.65 0 5.14 1.033 7.01 2.906a9.842 9.842 0 0 1 2.9 7.01c0 5.465-4.447 9.91-9.91 9.91h-.003c-1.66 0-3.29-.416-4.737-1.205L2.048 22zm5.497-3.172l.3.18a8.23 8.23 0 0 0 4.194 1.147h.002c4.54 0 8.235-3.695 8.237-8.237a8.2 8.2 0 0 0-2.41-5.828 8.186 8.186 0 0 0-5.825-2.416c-4.544 0-8.24 3.695-8.24 8.237a8.213 8.213 0 0 0 1.258 4.385l.196.312-.833 3.04 3.118-.82zm9.49-4.554c-.062-.103-.227-.165-.475-.29-.248-.123-1.465-.722-1.692-.805-.227-.084-.392-.125-.557.123-.164.248-.64.806-.783.97-.144.166-.29.187-.536.063-.247-.124-1.045-.385-1.99-1.23-.736-.656-1.233-1.467-1.378-1.714-.144-.248-.015-.382.11-.505.11-.11.247-.29.37-.434.124-.145.165-.248.248-.413.083-.165.04-.31-.02-.434-.063-.124-.558-1.343-.764-1.84-.202-.482-.407-.416-.56-.424a10.06 10.06 0 0 0-.474-.01.913.913 0 0 0-.66.31c-.226.25-.866.848-.866 2.067 0 1.218.887 2.395 1.01 2.56.125.166 1.747 2.667 4.23 3.74.592.255 1.053.408 1.413.522.592.19 1.132.162 1.56.098.475-.07 1.464-.6 1.67-1.177.206-.58.206-1.075.145-1.18z"/></symbol><symbol id="wordpress" viewBox="0 0 24 24"><path d="M0 0h24v24H0z"/><path d="M12.158 12.786l-2.698 7.84a9.02 9.02 0 0 0 5.526-.145.792.792 0 0 1-.065-.123l-2.762-7.57zM3.008 12c0 3.56 2.07 6.634 5.068 8.092L3.788 8.342A8.928 8.928 0 0 0 3.008 12zm15.06-.454c0-1.112-.398-1.88-.74-2.48-.456-.74-.883-1.368-.883-2.11 0-.825.627-1.595 1.51-1.595.04 0 .078.006.116.008a8.96 8.96 0 0 0-6.07-2.36 8.985 8.985 0 0 0-7.512 4.053c.21.008.41.012.58.012.94 0 2.395-.114 2.395-.114.484-.028.54.684.057.74 0 0-.487.058-1.03.086l3.275 9.74 1.968-5.902-1.4-3.838a16.358 16.358 0 0 1-.944-.085c-.486-.03-.43-.77.056-.742 0 0 1.484.114 2.368.114.94 0 2.397-.114 2.397-.114.486-.028.543.684.058.74 0 0-.488.058-1.03.086l3.25 9.665.897-2.997c.456-1.17.684-2.137.684-2.907zm1.82-3.86c.04.286.06.593.06.924 0 .912-.17 1.938-.683 3.22l-2.746 7.94a8.986 8.986 0 0 0 4.47-7.77c0-1.564-.4-3.033-1.1-4.314zM12 22C6.486 22 2 17.514 2 12S6.486 2 12 2s10 4.486 10 10-4.486 10-10 10z"/></symbol><symbol id="xanga" viewBox="0 0 24 24"><path d="M0 0h24v24H0z"/><path d="M9 9h6v6H9V9zM3 9h6V3H3v6zm12 0h6V3h-6v6zm0 12h6v-6h-6v6zM3 21h6v-6H3v6z"/></symbol><symbol id="youtube" viewBox="0 0 24 24"><path d="M0 0h24v24H0z"/><path d="M21.8 8s-.195-1.377-.795-1.984c-.76-.797-1.613-.8-2.004-.847-2.798-.203-6.996-.203-6.996-.203h-.01s-4.197 0-6.996.202c-.39.046-1.242.05-2.003.846C2.395 6.623 2.2 8 2.2 8S2 9.62 2 11.24v1.517c0 1.618.2 3.237.2 3.237s.195 1.378.795 1.985c.76.797 1.76.77 2.205.855 1.6.153 6.8.2 6.8.2s4.203-.005 7-.208c.392-.047 1.244-.05 2.005-.847.6-.607.795-1.985.795-1.985s.2-1.618.2-3.237V11.24C22 9.62 21.8 8 21.8 8zM9.935 14.595v-5.62l5.403 2.82-5.403 2.8z"/></symbol></svg>