<svg xmlns="http://www.w3.org/2000/svg" class="hide"><symbol id="amazon" viewBox="0 0 24 24"><path d="M13.6 8.2c-1.6.2-3.8.3-5.3 1-1.8.8-3 2.3-3 4.6 0 3 1.9 4.4 4.3 4.4 2 0 3.1-.5 4.7-2.1.5.7.7 1.1 1.6 1.9.2.1.5.1.7-.1.6-.5 1.6-1.4 2.2-1.9.2-.2.2-.5 0-.8-.5-.7-1.1-1.3-1.1-2.6V8.3c0-1.9.1-3.6-1.2-4.9C15.2 2.4 13.4 2 12 2 9.3 2 6.3 3 5.7 6.3c-.1.4.2.6.4.6l2.8.3c.3 0 .4-.3.5-.5.2-1.1 1.2-1.7 2.2-1.7.6 0 1.2.2 1.6.7.4.6.3 1.4.3 2.1.1 0 .1.4.1.4zm-.6 5.9c-.5.8-1.2 1.3-2 1.3-1.1 0-1.7-.8-1.7-2.1 0-2.4 2.2-2.9 4.2-2.9v.6c.1 1.2.1 2.1-.5 3.1zm7.7 5.2C18.3 21.1 14.9 22 12 22c-4.1 0-7.8-1.5-10.6-4.1-.2-.2 0-.5.2-.3 3 1.8 6.8 2.8 10.6 2.8 2.6 0 5.5-.5 8.1-1.7.4-.1.8.3.4.6zm.6 1.7c-.2.2-.4.1-.3-.1.3-.7.9-2.3.6-2.7-.3-.4-2-.2-2.8-.1-.2 0-.3-.2-.1-.3 1.4-.9 3.6-.7 3.8-.4.4.4.1 2.6-1.2 3.6z"/></symbol><symbol id="behance" viewBox="0 0 24 24"><path d="M7.8 5.7c.6 0 1.1.1 1.6.2s.9.3 1.2.5c.3.2.6.5.8.9.2.4.3.9.3 1.4 0 .6-.1 1.1-.4 1.6-.3.4-.7.8-1.3 1 .8.2 1.3.6 1.7 1.1.4.6.6 1.2.6 2 0 .6-.1 1.2-.4 1.6-.2.5-.6.8-1 1.1-.4.3-.9.5-1.4.6-.4.2-1 .3-1.5.3H2V5.7h5.8m-.3 5c.5 0 .9-.1 1.2-.3.3-.3.4-.7.4-1.2 0-.3-.1-.5-.2-.7-.1-.2-.2-.3-.4-.4-.1-.1-.3-.2-.6-.2-.2 0-.5-.1-.7-.1H4.7v2.9h2.8zm.1 5.2c.3 0 .5 0 .8-.1.2-.1.5-.1.6-.3.2-.1.3-.3.4-.5.1-.2.2-.5.2-.8 0-.6-.2-1.1-.5-1.4-.4-.3-.8-.4-1.4-.4h-3v3.4l2.9.1zm8.6 0c.4.4.9.5 1.6.5.5 0 .9-.1 1.3-.4.4-.2.6-.5.7-.8H22c-.3 1.1-.9 1.8-1.6 2.3-.7.5-1.6.7-2.6.7-.7 0-1.3-.1-1.9-.3-.6-.2-1-.5-1.4-1-.4-.4-.7-.9-.9-1.5-.2-.6-.3-1.2-.3-1.9s.1-1.3.3-1.9c.2-.6.5-1.1.9-1.5.4-.4.9-.8 1.4-1 .5-.1 1.1-.3 1.8-.3.8 0 1.4.1 2 .4.6.3 1 .7 1.4 1.2.4.5.6 1.1.8 1.7.2.6.2 1.3.2 2h-6.4c-.1.7.1 1.4.5 1.8m2.8-4.7c-.3-.3-.8-.5-1.4-.5-.4 0-.7.1-1 .2-.3.1-.5.3-.6.5-.2.2-.3.4-.3.6-.1.2-.1.4-.1.6h4c-.1-.6-.3-1.1-.6-1.4zm-3.9-3.5h5V6.5h-5v1.2z"/></symbol><symbol id="blogger-alt" viewBox="0 0 24 24"><path d="M19.8 9.9h-1c-.6 0-1.1-.5-1.2-1.1C17.6 5.6 15 3 11.8 3H8.9C5.7 3 3.1 5.6 3.1 8.8v6.4c0 3.2 2.6 5.8 5.8 5.8h6.3c3.2 0 5.8-2.6 5.8-5.8v-4.1c-.1-.7-.6-1.2-1.2-1.2zM8.7 7.7H12c.6 0 1.1.5 1.1 1.1 0 .6-.5 1.1-1.1 1.1H8.7c-.6 0-1.1-.5-1.1-1.1 0-.6.5-1.1 1.1-1.1zm6.6 8.7H8.7c-.6 0-1.1-.5-1.1-1.1s.5-1.1 1.1-1.1h6.6c.6 0 1.1.5 1.1 1.1s-.5 1.1-1.1 1.1z"/></symbol><symbol id="blogger" viewBox="0 0 24 24"><path d="M14.7 14c0 .4-.3.7-.7.7h-4c-.4 0-.7-.3-.7-.7s.3-.7.7-.7h4.1c.3.1.6.4.6.7zM10 10.7h2c.4 0 .7-.3.7-.7s-.3-.7-.7-.7h-2c-.4 0-.7.3-.7.7s.3.7.7.7zM21 5v14c0 1.1-.9 2-2 2H5c-1.1 0-2-.9-2-2V5c0-1.1.9-2 2-2h14c1.1 0 2 .9 2 2zm-3.5 6.4c0-.4-.3-.7-.7-.7h-.6c-.4 0-.7-.3-.7-.7 0-2-1.6-3.6-3.6-3.6h-1.8c-2 0-3.6 1.6-3.6 3.6v3.9c0 2 1.6 3.6 3.6 3.6H14c2 0 3.6-1.6 3.6-3.6-.1 0-.1-2.5-.1-2.5z"/></symbol><symbol id="codepen" viewBox="0 0 24 24"><path d="M22 8.8v-.2-.2l-9.2-6.1c-.3-.2-.7-.2-1 0L2.4 8.2V15.5l9.2 6.1c.1.1.3.1.5.1s.3 0 .5-.1l9.2-6.1V15.2v-.1V9c.2-.1.2-.1.2-.2zm-9.1-4.3L19.6 9l-3 2-3.7-2.5v-4zm-1.8 0v4L7.4 11l-3-2 6.7-4.5zm-7.4 6.1L5.9 12l-2.2 1.4v-2.8zm7.4 8.9L4.4 15l3-2 3.7 2.5v4zM12 14l-3-2 3-2 3 2-3 2zm.9 5.5v-4l3.7-2.5 3 2-6.7 4.5zm7.4-6.1L18.1 12l2.2-1.4v2.8z"/></symbol><symbol id="dribbble" viewBox="0 0 24 24"><path d="M12 22C6.5 22 2 17.5 2 12S6.5 2 12 2s10 4.5 10 10-4.5 10-10 10zm8.4-8.6c-.3-.1-2.6-.8-5.3-.4 1.1 3.1 1.6 5.6 1.7 6.1 1.9-1.3 3.3-3.4 3.6-5.7zm-5.1 6.5c-.1-.8-.6-3.4-1.8-6.5h-.1c-4.8 1.7-6.5 5-6.7 5.3 1.4 1.1 3.3 1.8 5.2 1.8 1.3.1 2.4-.2 3.4-.6zm-9.6-2.2c.2-.3 2.5-4.2 6.9-5.6.1 0 .2-.1.3-.1-.2-.5-.4-1-.7-1.4-4.3 1.3-8.4 1.2-8.8 1.2v.3c.1 2.1.9 4.1 2.3 5.6zm-2.1-7.4c.4 0 3.9 0 7.9-1-1.4-2.5-2.9-4.6-3.2-4.9-2.3 1-4.1 3.2-4.7 5.9zM10 3.7c.2.3 1.8 2.4 3.2 5 3-1.1 4.3-2.9 4.5-3.1-1.5-1.3-3.5-2.2-5.7-2.2-.7.1-1.4.2-2 .3zm8.6 2.9c-.2.3-1.6 2.1-4.8 3.4l.6 1.2.2.4c2.8-.4 5.7.2 5.9.3 0-2-.7-3.8-1.9-5.3z"/></symbol><symbol id="dropbox" viewBox="0 0 24 24"><path d="M12 6.1L6.1 9.8 2 6.5l5.9-3.8L12 6.1zm-10 7l5.9 3.8 4.1-3.4-5.9-3.7L2 13.1zm10 .4l4.1 3.4 5.9-3.8-4.1-3.3-5.9 3.7zm10-7l-5.9-3.8L12 6.1l5.9 3.7L22 6.5zm-10 7.7l-4.1 3.4-1.8-1.2v1.3l5.9 3.5 5.9-3.5v-1.3l-1.8 1.2-4.1-3.4z"/></symbol><symbol id="eventbrite" viewBox="0 0 24 24"><path d="M18 3.9L6 3C4.3 3 3 4.3 3 6v12c0 1.6 1.3 3 3 3l12-.9c1.7-.1 3-1.3 3-3V6.9c0-1.6-1.3-2.9-3-3zm-1.1 4.3c-.1.2-.2.4-.4.6-.2.1-.5.1-.8.1h-4.6c-.2.7-.3 1.4-.5 2.1h2.8c.7 0 1.5-.1 1.6.5 0 .2 0 .4-.1.6-.1.4-.3.7-.6.8-.2.1-.4.1-.6.1h-3.5c-.2.8-.3 1.6-.5 2.3 1.6 0 3.1 0 4.6-.1.6 0 1.1.2 1 .8 0 .3-.1.5-.2.7-.1.2-.2.4-.5.5-.2.1-.5.1-.9.1h-1.8c-1.3 0-2.4.1-3.7.1-.6 0-1-.2-1.1-.8-.1-.3 0-.6 0-.8.5-2.6 1.1-5.2 1.6-7.8.2-.2.3-.4.4-.6.2-.3.4-.5.8-.6.4-.1.9 0 1.3 0h.9c.9 0 1.8 0 2.7.1h.9c.6 0 1.2.1 1.2.6.2.2.1.5 0 .7z"/></symbol><symbol id="facebook" viewBox="0 0 24 24"><path d="M20 3H4c-.6 0-1 .4-1 1v16c0 .5.4 1 1 1h8.6v-7h-2.3v-2.7h2.3v-2c0-2.3 1.4-3.6 3.5-3.6 1 0 1.8.1 2.1.1v2.4h-1.4c-1.1 0-1.3.5-1.3 1.3v1.7h2.7l-.4 2.8h-2.3v7H20c.5 0 1-.4 1-1V4c0-.6-.4-1-1-1z"/></symbol><symbol id="feed" viewBox="0 0 24 24"><path d="M2 8.7V12c5.5 0 10 4.5 10 10h3.3C15.3 14.6 9.4 8.7 2 8.7zM2 2v3.3c9.2 0 16.7 7.5 16.7 16.7H22C22 11 13 2 2 2zm2.5 15C3.1 17 2 18.1 2 19.5S3.1 22 4.5 22 7 20.9 7 19.5 5.9 17 4.5 17z"/></symbol><symbol id="flickr" viewBox="0 0 24 24"><path d="M6.5 7c-2.8 0-5 2.2-5 5s2.2 5 5 5 5-2.2 5-5-2.3-5-5-5zm11 0c-2.8 0-5 2.2-5 5s2.2 5 5 5 5-2.2 5-5-2.3-5-5-5z"/></symbol><symbol id="foursquare" viewBox="0 0 24 24"><path d="M17.6 2H6.9S5 3.1 5 3.8v16.9c0 .8.4 1.1.7 1.2.2.1.9.2 1.3-.3 0 0 5-5.8 5.1-5.9.1-.1.1-.1.3-.1h3.3c1.4 0 1.6-1 1.7-1.6.1-.3.7-3.4 1.2-6.1l.7-3.4c.3-1.6-.2-2.5-1.7-2.5zm-1.1 5.2c-.1.3-.4.5-.7.5h-4.2c-.5 0-.8.3-.8.8V9c0 .5.3.8.8.8h3.5s.7.4.6.7-.4 2.1-.4 2.3c0 .2-.3.5-.7.5h-2.9c-.5 0-.7.1-1 .5-.4.4-3.5 4.2-3.5 4.2h-.1V4.9c0-.3.3-.6.6-.6h8.6c.3 0 .6.3.5.7l-.3 2.2z"/></symbol><symbol id="ghost" viewBox="0 0 24 24"><path d="M10.2 21H3v-3.6h7.2V21zM21 17.4h-7.2V21H21v-3.6zm0-7.2H3v3.6h18v-3.6zM13.8 3H3v3.6h10.8V3zM21 3h-3.6v3.6H21V3z"/></symbol><symbol id="github" viewBox="0 0 24 24"><path d="M12 2C6.5 2 2 6.5 2 12c0 4.4 2.9 8.2 6.8 9.5.5.1.7-.2.7-.5v-1.7c-2.8.6-3.4-1.3-3.4-1.3-.4-1.2-1.1-1.5-1.1-1.5-.9-.6.1-.6.1-.6 1 .1 1.5 1 1.5 1 .9 1.6 2.4 1.1 2.9.9.1-.6.3-1.1.6-1.3-2.2-.3-4.6-1.1-4.6-4.9 0-1.1.4-2 1-2.7 0-.4-.3-1.4.2-2.8 0 0 .8-.3 2.7 1 .8-.2 1.7-.3 2.5-.3.9 0 1.7.1 2.5.3 1.9-1.3 2.7-1 2.7-1 .5 1.4.2 2.4.1 2.6.6.7 1 1.6 1 2.7 0 3.8-2.3 4.7-4.6 4.9.4.3.7.9.7 1.9v2.7c0 .3.2.6.7.5 4-1.3 6.8-5.1 6.8-9.5C22 6.5 17.5 2 12 2z"/></symbol><symbol id="google-plus-alt" viewBox="0 0 24 24"><path d="M8 11h6.6c.1.4.1.7.1 1.2 0 4-2.7 6.8-6.7 6.8-3.9 0-7-3.1-7-7s3.1-7 7-7c1.9 0 3.5.7 4.7 1.8l-1.9 1.8c-.5-.4-1.4-1-2.8-1-2.4 0-4.3 2-4.3 4.4s1.9 4.4 4.3 4.4c2.8 0 3.8-2 4-3H8V11zm15 0h-2V9h-2v2h-2v2h2v2h2v-2h2"/></symbol><symbol id="google-plus" viewBox="0 0 24 24"><path d="M12 2C6.5 2 2 6.5 2 12s4.5 10 10 10 10-4.5 10-10S17.5 2 12 2zm-1.9 14C7.8 16 6 14.2 6 12s1.8-4.1 4.1-4.1c1.1 0 2 .4 2.7 1.1l-1.1 1.1c-.3-.3-.8-.6-1.6-.6-1.3 0-2.4 1.1-2.4 2.5s1.1 2.5 2.4 2.5c1.6 0 2.1-1.1 2.2-1.7h-2.2v-1.5h3.8c.1.3.1.5.1.8 0 2.3-1.6 4-3.9 3.9zm8.9-3.3h-1.2V14h-1.5v-1.2H15v-1.5h1.2V10h1.5v1.2H19v1.5z"/></symbol><symbol id="instagram" viewBox="0 0 24 24"><path d="M18.9 10.6h-1.6c.1.4.2.9.2 1.4 0 3.1-2.5 5.5-5.5 5.5-3.1 0-5.5-2.5-5.5-5.5 0-.5.1-.9.2-1.4H5.1v7.6c0 .4.3.7.7.7h12.5c.4 0 .7-.3.7-.7l-.1-7.6zm0-4.8c0-.4-.3-.7-.7-.7h-2.1c-.4 0-.7.3-.7.7v2.1c0 .4.3.7.7.7h2.1c.4 0 .7-.3.7-.7V5.8zM12 8.5c-1.9 0-3.5 1.6-3.5 3.5s1.6 3.5 3.5 3.5 3.5-1.6 3.5-3.5-1.6-3.5-3.5-3.5M18.9 21H5.1C3.9 21 3 20.1 3 18.9V5.1C3 3.9 3.9 3 5.1 3h13.8c1.2 0 2.1.9 2.1 2.1v13.8c0 1.2-.9 2.1-2.1 2.1"/></symbol><symbol id="linkedin" viewBox="0 0 24 24"><path d="M19.7 3H4.3C3.6 3 3 3.6 3 4.3v15.4c0 .7.6 1.3 1.3 1.3h15.4c.7 0 1.3-.6 1.3-1.3V4.3c0-.7-.6-1.3-1.3-1.3zM8.3 18.3H5.7V9.7h2.7v8.6zM7 8.6c-.9 0-1.5-.7-1.5-1.6 0-.9.7-1.5 1.6-1.5.9 0 1.5.7 1.5 1.5 0 .9-.7 1.6-1.6 1.6zm11.3 9.7h-2.7v-4.2c0-1 0-2.3-1.4-2.3s-1.6 1.1-1.6 2.2v4.2H10V9.7h2.6v1.2c.4-.7 1.2-1.4 2.5-1.4 2.7 0 3.2 1.8 3.2 4.1v4.7z"/></symbol><symbol id="mail" viewBox="0 0 24 24"><path d="M20 4H4c-1.1 0-2 .9-2 2v12c0 1.1.9 2 2 2h16c1.1 0 2-.9 2-2V6c0-1.1-.9-2-2-2zm0 4.2l-8 4.9-8-4.9V6h16v2.2z"/></symbol><symbol id="medium" viewBox="0 0 24 24"><path d="M21 7.3l-5.5 8.9-3.9-6.4 3.1-5.1c.1-.2.3-.3.5-.3h.2L21 7.3c0-.1 0-.1 0 0zM9.9 8.6v5.8L15 17c0-.1-5.1-8.4-5.1-8.4zm5.9 8.7l4.2 2.1c.6.3 1 .1 1-.4V8.8l-5.2 8.5zM9 7.2L3.7 4.5h-.3c-.2 0-.4.1-.4.4v11.4c0 .3.2.7.5.8l4.7 2.3c.1.1.2.1.3.1.3.1.5-.1.5-.5V7.2z"/></symbol><symbol id="path-alt" viewBox="0 0 24 24"><path d="M17.2 16.4c-.7.3-1.5.6-2.3.6-.9 0-1.8 0-2.6-.4v1.8c0 2.3-1 3.7-3.4 3.7-.7 0-2-.2-2.4-.8v-2.8c.4.4.9.7 1.5.7s1-.4 1-1V8.3h3.3V14c.5.2 1.1.3 1.7.3 2.1 0 3.8-1.4 3.8-3.6 0-3.4-2.9-4.7-6-4.7C9 6 6.1 7.6 6.1 10.8c0 1 .2 1.7.9 2.4l-2.4 2C3.3 13.8 3 12.7 3 10.8 3 5.8 7.1 3 11.7 3c4.7 0 9.3 2.4 9.3 7.6 0 2.6-1.5 4.7-3.8 5.8z"/></symbol><symbol id="path" viewBox="0 0 24 24"><path d="M19 3H5c-1.1 0-2 .9-2 2v14c0 1.1.9 2 2 2h14c1.1 0 2-.9 2-2V5c0-1.1-.9-2-2-2zm-4.1 11.2c-.4.2-.9.3-1.3.3-.5 0-1 0-1.5-.2v1c0 1.3-.6 2.1-1.9 2.1-.4 0-1.1-.1-1.3-.5v-1.6c.2.2.5.4.9.4s.6-.2.6-.6V9.6h1.8v3.2c.3.1.6.1.9.1 1.2 0 2.2-.8 2.2-2 0-1.9-1.7-2.7-3.4-2.7-1.6 0-3.2.9-3.2 2.7 0 .5.1 1 .5 1.4l-1.3 1.1c-.7-.8-.9-1.5-.9-2.5 0-2.8 2.3-4.4 4.9-4.4 2.6 0 5.3 1.4 5.3 4.3-.1 1.6-1 2.8-2.3 3.4z"/></symbol><symbol id="pinterest-alt" viewBox="0 0 24 24"><path d="M12.3 2C6.6 2 3.6 5.6 3.6 9.6c0 1.8 1 4.1 2.7 4.9.2.1.4.1.4-.2 0-.2.3-1 .4-1.4 0-.1 0-.2-.1-.4-.5-.6-1-1.8-1-2.9 0-2.8 2.2-5.5 5.9-5.5 3.2 0 5.5 2.1 5.5 5.1 0 3.4-1.8 5.8-4.1 5.8-1.3 0-2.3-1-1.9-2.3.4-1.5 1.1-3.1 1.1-4.2 0-1-.5-1.8-1.7-1.8-1.3 0-2.4 1.3-2.4 3.1 0 1.1.4 1.9.4 1.9S7.5 17.1 7.3 18c-.4 1.7.1 4.4.1 4.6 0 .1.2.2.2.1.1-.2 1.7-2.4 2.1-4 .2-.6.8-3 .8-3 .4.8 1.7 1.4 3 1.4 4 0 6.8-3.5 6.8-7.8.1-4.2-3.4-7.3-8-7.3"/></symbol><symbol id="pinterest" viewBox="0 0 24 24"><path d="M12 2C6.5 2 2 6.5 2 12c0 4.2 2.6 7.9 6.4 9.3-.1-.8-.2-2 0-2.9.2-.8 1.2-5 1.2-5s-.3-.5-.3-1.4c0-1.4.8-2.4 1.8-2.4.9 0 1.3.6 1.3 1.4 0 .9-.5 2.1-.8 3.3-.2 1 .5 1.8 1.5 1.8 1.8 0 3.1-1.9 3.1-4.6 0-2.4-1.7-4.1-4.2-4.1-2.8 0-4.5 2.1-4.5 4.3 0 .9.3 1.8.7 2.3.1.1.1.2.1.3-.1.3-.2 1-.3 1.1 0 .2-.1.2-.3.1-1.2-.6-2-2.4-2-3.9 0-3.2 2.3-6.1 6.6-6.1 3.5 0 6.2 2.5 6.2 5.8 0 3.4-2.2 6.2-5.2 6.2-1 0-2-.5-2.3-1.1l-.6 2.4c-.2.9-.8 2-1.2 2.6.8.4 1.8.6 2.8.6 5.5 0 10-4.5 10-10S17.5 2 12 2z"/></symbol><symbol id="pocket" viewBox="0 0 24 24"><path d="M21.9 4.2C21.7 3.5 21 3 20.2 3H3.8c-.7 0-1.4.5-1.7 1.2 0 .2-.1.4-.1.6v6l.1 1.2c.3 2.7 1.7 5.1 3.9 6.8l.1.1c1.2.9 2.5 1.4 3.9 1.7.7.1 1.3.2 2 .2.6 0 1.2-.1 1.8-.2H14.1c1.4-.3 2.6-.9 3.8-1.7l.1-.1c2.2-1.7 3.6-4.1 3.9-6.8l.1-1.2v-6c0-.2 0-.4-.1-.6zm-4.2 6.3L13 15c-.3.3-.6.4-.9.4-.3 0-.7-.1-.9-.4l-4.7-4.5c-.5-.5-.6-1.4 0-1.9.4-.6 1.2-.6 1.8-.1l3.8 3.6 3.8-3.6c.5-.5 1.4-.5 1.9 0 .5.6.4 1.5-.1 2z"/></symbol><symbol id="polldaddy" viewBox="0 0 24 24"><path d="M12 2C6.5 2 2 6.5 2 12s4.5 10 10 10 10-4.5 10-10S17.5 2 12 2zm1 1.7c2.4.1 4.7 1.2 6.2 3.1.3.3.5.7.8 1.1C18.6 6.1 16.4 5 13.9 5 11.5 5 9.4 6 8 7.7l-.2.1c-1 1.1-1.6 2.6-1.6 4.2 0 3.4 2.8 6.1 6.1 6.1.6 0 1.1-.1 1.6-.2-1.9.8-4.1.7-5.9-.3-1.8-1.1-3.2-3.1-3.4-5.3-.3-2.2.5-4.5 2.1-6.2 1.6-1.6 3.9-2.5 6.3-2.4zm3.4 8.5c0-2-1.6-3.9-3.5-4.2-1.9-.3-3.9.9-4.4 2.7-.3.9-.2 1.8.2 2.7.4.8 1.1 1.4 1.9 1.8 1.7.7 3.6-.3 4.2-1.9.6-1.6-.4-3.4-1.9-3.8-1.5-.4-3.2.8-3.2 2.2-.1.7.3 1.4.8 1.9s1.2.7 1.9.5c.6-.1 1.2-.6 1.5-1.1.3-.6.2-1.3-.1-1.8-.3-.5-.9-.9-1.4-.9-.6 0-1.1.2-1.4.7-.3.4-.4 1-.2 1.5.2.6.8 1.1 1.5 1.1-.3 0-.7 0-1-.2-.5-.2-.8-.7-.9-1.3-.1-.5.1-1.1.5-1.5.4-.4 1-.6 1.6-.6.6 0 1.2.4 1.5.9.4.5.5 1.2.4 1.8-.1.6-.5 1.2-1.1 1.5-.6.3-1.3.5-1.9.3-.6-.2-1.2-.6-1.6-1.2-.4-.6-.5-1.3-.3-2 .1-.7.6-1.3 1.2-1.8 1.2-.9 3.1-.8 4.1.4 1.1 1.1 1.3 3 .4 4.4-.9 1.4-2.7 2.1-4.4 1.6-1.6-.4-2.9-2.1-3-3.9-.5-.9-.3-1.8.2-2.6.4-.8 1.1-1.4 2-1.8 1.6-.9 3.8-.7 5.3.4 1.2.9 2.1 2.4 2.2 4 0 2.9-2.4 5.3-5.3 5.3-.7 0-1.3-.1-1.9-.4.9.2 1.8.2 2.6-.1 1-.3 1.9-.9 2.5-1.8.7-.8 1-1.8 1-2.8zM12 21.1c-5 0-9.1-4.1-9.1-9.1 0-4.8 3.7-8.7 8.4-9.1-.1 0-.3 0-.4.1-2.6.5-5 2.1-6.3 4.4-1.3 2.3-1.4 5.2-.3 7.5 1.1 2.3 3.3 4.2 5.8 4.6 2.5.4 5.1-.5 6.8-2.3 1.7-1.8 2.3-4.5 1.5-6.8-.6-1.8-2-3.3-3.7-4 3.4.6 6.2 3.2 6.2 6.8 0 1-.2 2-.7 3-1.6 2.9-4.6 4.9-8.2 4.9z"/></symbol><symbol id="print" viewBox="0 0 24 24"><path d="M9 16h6v2H9v-2zm13 1h-3v3c0 1.1-.9 2-2 2H7c-1.1 0-2-.9-2-2v-3H2V9c0-1.1.9-2 2-2h1V5c0-1.1.9-2 2-2h10c1.1 0 2 .9 2 2v2h1c1.1 0 2 .9 2 2v8zM7 7h10V5H7v2zm10 7H7v6h10v-6zm3-3.5c0-.8-.7-1.5-1.5-1.5s-1.5.7-1.5 1.5.7 1.5 1.5 1.5 1.5-.7 1.5-1.5z"/></symbol><symbol id="reddit" viewBox="0 0 24 24"><path d="M22 11.8c0-1.3-1-2.3-2.3-2.3-.6 0-1.1.2-1.5.6-1.5-1-3.5-1.6-5.6-1.7l1.2-3.7 3.2.8c0 1 .8 1.9 1.9 1.9 1 0 1.9-.8 1.9-1.9 0-1-.8-1.9-1.9-1.9-.8 0-1.4.5-1.7 1.1l-3.5-.8c-.2 0-.4.1-.5.3l-1.4 4.3c-2.3 0-4.4.7-6 1.7-.4-.4-.9-.7-1.5-.7C3 9.5 2 10.6 2 11.8c0 .8.4 1.5 1.1 1.9-.1.3-.1.5-.1.7 0 3.3 4 6 8.9 6s8.9-2.7 8.9-6c0-.2 0-.4-.1-.6.8-.4 1.3-1.1 1.3-2zm-3.2-7.4c.6 0 1.1.5 1.1 1.1s-.5 1.1-1.1 1.1-1.1-.5-1.1-1.1.5-1.1 1.1-1.1zm-16 7.4c0-.8.7-1.5 1.5-1.5.3 0 .6.1.8.3-.8.7-1.5 1.5-1.8 2.4-.3-.3-.5-.7-.5-1.2zm9.2 7.8c-4.5 0-8.2-2.3-8.2-5.2S7.5 9.2 12 9.2s8.2 2.3 8.2 5.2-3.7 5.2-8.2 5.2zm8.6-6.6c-.3-.9-.9-1.7-1.8-2.4.2-.2.5-.3.9-.3.8 0 1.5.7 1.5 1.5 0 .5-.2.9-.6 1.2zM9 14.7c-.8 0-1.4-.6-1.4-1.4s.6-1.4 1.4-1.4 1.4.6 1.4 1.4c0 .8-.6 1.4-1.4 1.4zm7.4-1.4c0 .8-.6 1.4-1.4 1.4s-1.4-.6-1.4-1.4.6-1.4 1.4-1.4c.8 0 1.4.7 1.4 1.4zm-1.2 3.4c.1.2.1.4 0 .5-.7.7-1.7 1-3.2 1-1.5 0-2.5-.3-3.2-1-.2-.2-.2-.4 0-.5.2-.2.4-.1.6 0 .5.5 1.4.8 2.7.8 1.3 0 2.2-.3 2.7-.8 0-.1.3-.1.4 0z"/></symbol><symbol id="share" viewBox="0 0 24 24"><path d="M18 16c-.8 0-1.5.3-2 .8l-7.1-4.1c.1-.2.1-.5.1-.7s0-.5-.1-.7L16 7.2c.5.5 1.2.8 2 .8 1.7 0 3-1.3 3-3s-1.3-3-3-3-3 1.3-3 3c0 .2 0 .5.1.7L8 9.8C7.5 9.3 6.8 9 6 9c-1.7 0-3 1.3-3 3s1.3 3 3 3c.8 0 1.5-.3 2-.8l7 4.1v.7c0 1.7 1.3 3 3 3s3-1.3 3-3-1.3-3-3-3z"/></symbol><symbol id="skype" viewBox="0 0 24 24"><path d="M10.1 2.7h.2-.2zm-7.4 7.5v.2-.2zm18.6 3.6v-.1s0-.1-.1-.1l.1.2zm-7.7 7.4h.2-.2zm8.4-4.8c0 1.5-.6 2.9-1.6 4-1.1 1.1-2.5 1.6-4 1.6-1 0-1.9-.2-2.8-.7h.1-.2s.1 0 .1.1c-.5.1-1.1.1-1.7.1-1.3 0-2.5-.2-3.7-.7-1.1-.5-2.1-1.2-3-2s-1.5-1.9-2-3c-.5-1.2-.7-2.4-.7-3.7 0-.5 0-1.1.1-1.6v.1-.2.1c-.4-1-.6-1.9-.6-2.9 0-1.5.6-2.9 1.6-4 1.1-1 2.5-1.6 4-1.6.9 0 1.8.2 2.6.7h-.1.1c.6-.1 1.2-.2 1.8-.2 1.3 0 2.5.2 3.7.7 1.1.5 2.1 1.2 3 2 .9.9 1.5 1.9 2 3 .5 1.2.7 2.4.7 3.7 0 .6-.1 1.1-.2 1.7 0 0 0-.1-.1-.1v.1c.7.9.9 1.8.9 2.8zm-5.2-2.3c0-1.3-.6-2.7-3-3.3l-2.2-.5c-.8-.2-1.8-.4-1.8-1.2 0-.8.7-1.3 1.9-1.3 2.5 0 2.2 1.7 3.5 1.7.6 0 1.2-.4 1.2-1 0-1.5-2.4-2.7-4.5-2.7-2.2 0-4.6 1-4.6 3.5 0 1.2.4 2.5 2.8 3.1l3 .7c.9.2 1.1.7 1.1 1.2 0 .8-.8 1.5-2.1 1.5-2.7 0-2.3-2.1-3.7-2.1-.6 0-1.1.4-1.1 1.1 0 1.2 1.5 2.9 4.9 2.9 3 0 4.6-1.5 4.6-3.6z"/></symbol><symbol id="spotify" viewBox="0 0 24 24"><path d="M12 2C6.5 2 2 6.5 2 12s4.5 10 10 10 10-4.5 10-10S17.5 2 12 2m4.6 14.4c-.2.3-.6.4-.9.2-2.4-1.4-5.3-1.8-8.8-1-.3.1-.7-.1-.7-.5-.1-.3.1-.7.5-.7 3.8-.9 7.1-.5 9.7 1.1.3.2.4.6.2.9m1.2-2.7c-.2.4-.7.5-1.1.3-2.7-1.7-6.8-2.1-10-1.2-.4.1-.8-.1-1-.5-.1-.4.1-.8.5-1 3.6-1.1 8.1-.6 11.2 1.3.5.3.6.7.4 1.1m.1-2.8c-3.2-2-8.5-2.1-11.6-1.2-.5.1-1-.1-1.2-.6-.1-.5.2-1 .7-1.2 3.5-1.1 9.4-.9 13.1 1.3.4.3.6.8.3 1.3s-.8.6-1.3.4"/></symbol><symbol id="squarespace" viewBox="0 0 24 24"><path d="M20.9 9.3c-1.5-1.5-4-1.5-5.5 0l-6.1 6.1c-.4.4-.4 1 0 1.4.4.4 1 .4 1.4 0l6.1-6.1c.8-.8 2-.8 2.7 0 .8.8.8 2 0 2.7l-6 6c.8.8 2 .8 2.7 0l4.7-4.7c1.5-1.5 1.5-3.9 0-5.4zm-2.1 2c-.4-.4-1-.4-1.4 0l-6.1 6.1c-.8.8-2 .8-2.7 0-.4-.4-1-.4-1.4 0-.4.4-.4 1 0 1.4 1.5 1.5 3.9 1.5 5.5 0l6.1-6.1c.4-.4.4-1 0-1.4zm-2-6.1c-1.5-1.5-3.9-1.5-5.5 0l-6.1 6.1c-.4.4-.4 1 0 1.4.4.4 1 .4 1.4 0l6.1-6.1c.8-.8 2-.8 2.7 0 .4.4 1 .4 1.4 0 .4-.4.4-1 0-1.4zm-2.1 2c-.4-.4-1-.4-1.4 0l-6.1 6.1c-.8.8-2 .8-2.7 0-.8-.8-.8-2 0-2.7l6-6c-.8-.8-2-.8-2.7 0L3.1 9.3c-1.5 1.5-1.5 4 0 5.5s3.9 1.5 5.5 0l6.1-6.1c.4-.5.4-1.1 0-1.5z"/></symbol><symbol id="stumbleupon" viewBox="0 0 24 24"><path d="M12 4.3c-2.5 0-4.5 2-4.5 4.5v6.4c0 .6-.5 1.1-1.1 1.1s-1.1-.5-1.1-1.1v-2.8H2v2.9c0 2.5 2 4.5 4.5 4.5s4.5-2 4.5-4.5V8.8c0-.6.5-1.1 1.1-1.1s1.1.5 1.1 1.1v1.3l1.4.6 2-.6V8.8c-.1-2.5-2.1-4.5-4.6-4.5zm1.1 8.1v2.9c0 2.5 2 4.5 4.5 4.5s4.5-2 4.5-4.5v-2.8h-3.4v2.8c0 .6-.5 1.1-1.1 1.1-.6 0-1.1-.5-1.1-1.1v-2.9l-2 .6-1.4-.6z"/></symbol><symbol id="telegram" viewBox="0 0 24 24"><path d="M12 2C6.5 2 2 6.5 2 12s4.5 10 10 10 10-4.5 10-10S17.5 2 12 2zm3.1 14.8s-.2.6-.9.3l-2.5-1.9-1.7 1.4s-.1.1-.3 0c0 0-.1 0-.3-.5-.1-.5-.9-3-.9-3L6 12.4s-.4-.1-.4-.4c0-.3.4-.5.4-.5l10-3.9s.8-.4.8.2c.1 0-1.7 9-1.7 9z"/></symbol><symbol id="tumblr-alt" viewBox="0 0 24 24"><path d="M16.8 17.4c-.4.2-1 .3-1.6.3-1.5 0-1.8-1.1-1.9-1.9v-6h3.9V6.9h-3.8V2h-2.8s-.1 0-.1.1c-.2 1.5-.9 4.1-3.8 5.2v2.5h1.9v6.3c0 2.1 1.6 5.2 5.8 5.1 1.4 0 3-.6 3.3-1.1l-.9-2.7z"/></symbol><symbol id="tumblr" viewBox="0 0 24 24"><path d="M19 3H5c-1.1 0-2 .9-2 2v14c0 1.1.9 2 2 2h14c1.1 0 2-.9 2-2V5c0-1.1-.9-2-2-2zm-5.6 14.3c-2.4 0-3.4-1.7-3.4-3v-3.7H8.9V9.1c1.7-.6 2.1-2.2 2.2-3 0-.1.1-.1.1-.1h1.6v2.9H15v1.7h-2.3v3.5c0 .5.2 1.1 1.1 1.1.3 0 .7-.1.9-.2l.5 1.6c0 .3-.9.6-1.8.7z"/></symbol><symbol id="twitch" viewBox="0 0 24 24"><path d="M16.5 8.1h-1.6V13h1.6V8.1zm-4.5 0h-1.6V13H12V8.1zM4.2 3.2L3 6.4v13.1h4.5V22H10l2.5-2.5h3.7l4.9-4.9V3.2H4.2zm15.2 10.6l-2.9 2.9H12l-2.5 2.5v-2.5H5.9V4.8h13.5v9z"/></symbol><symbol id="twitter-alt" viewBox="0 0 24 24"><path d="M22.2 5.9c-.7.3-1.5.5-2.4.6.8-.5 1.5-1.3 1.8-2.3-.8.5-1.7.8-2.6 1-.7-.8-1.8-1.3-3-1.3-2.2.1-4 1.9-4 4.2 0 .3 0 .6.1.9-3.4-.1-6.5-1.8-8.5-4.2-.3.6-.5 1.3-.5 2 0 1.4.7 2.7 1.8 3.4-.7 0-1.3-.2-1.9-.5v.1c0 2 1.4 3.6 3.3 4-.3.1-.7.1-1.1.1-.3 0-.5 0-.8-.1.5 1.6 2 2.8 3.8 2.8-1.4 1.1-3.2 1.8-5.1 1.8-.3 0-.7 0-1-.1 1.8 1.2 4 1.8 6.3 1.8 7.5 0 11.7-6.3 11.7-11.7v-.5c.9-.4 1.6-1.1 2.1-2z"/></symbol><symbol id="twitter" viewBox="0 0 24 24"><path d="M19 3H5c-1.1 0-2 .9-2 2v14c0 1.1.9 2 2 2h14c1.1 0 2-.9 2-2V5c0-1.1-.9-2-2-2zm-2.5 6.7v.3c0 3-2.3 6.6-6.6 6.6-1.3 0-2.5-.4-3.5-1H7c1.1 0 2.1-.4 2.9-1-1 0-1.9-.7-2.2-1.6h.4c.2 0 .4 0 .6-.1-1.1-.2-1.8-1.1-1.8-2.3.3.2.7.3 1 .3-.6-.4-1-1.1-1-1.9 0-.4.1-.8.3-1.2 1.1 1.4 2.8 2.3 4.8 2.4 0-.2-.1-.3-.1-.5 0-1.3 1-2.3 2.3-2.3.7 0 1.3.3 1.7.7.5-.1 1-.3 1.5-.6-.2.5-.5 1-1 1.3.5-.1.9-.2 1.3-.4-.4.6-.8 1-1.2 1.3z"/></symbol><symbol id="vimeo" viewBox="0 0 24 24"><path d="M22.4 7.2c-.1 2-1.5 4.8-4.2 8.3-2.9 3.7-5.3 5.5-7.2 5.5-1.2 0-2.2-1.1-3.1-3.4-.6-2.1-1.1-4.1-1.7-6.2C5.6 9.2 4.9 8 4.2 8c-.2 0-.7.3-1.6 1l-1-1.3 3-2.7C6 4 7 3.3 7.7 3.3c1.6-.2 2.6 1 3 3.3.4 2.6.7 4.1.8 4.8.5 2.1 1 3.2 1.5 3.2.4 0 1.1-.7 2-2.1.9-1.4 1.3-2.4 1.4-3.1.1-1.2-.3-1.8-1.4-1.8-.5 0-1 .1-1.5.3 1-3.3 3-5 5.9-4.9 2.1.1 3.1 1.5 3 4.2z"/></symbol><symbol id="whatsapp" viewBox="0 0 24 24"><path d="M2 22l1.4-5.1c-.9-1.5-1.3-3.2-1.3-5C2.1 6.4 6.6 2 12 2c2.7 0 5.1 1 7 2.9 1.9 1.9 2.9 4.4 2.9 7 0 5.5-4.4 9.9-9.9 9.9-1.7 0-3.3-.4-4.7-1.2L2 22zm5.5-3.2l.3.2c1.3.8 2.7 1.1 4.2 1.1 4.5 0 8.2-3.7 8.2-8.2 0-2.2-.9-4.3-2.4-5.8-1.6-1.6-3.6-2.4-5.8-2.4-4.5 0-8.2 3.7-8.2 8.2 0 1.6.4 3.1 1.3 4.4l.2.3-.8 3 3-.8zm9.5-4.5c-.1-.1-.2-.2-.5-.3-.2-.1-1.5-.7-1.7-.8-.2-.1-.4-.1-.6.1-.2.2-.6.8-.8 1-.1.2-.3.2-.5.1s-1-.4-2-1.2c-.7-.7-1.2-1.5-1.4-1.7-.1-.2 0-.4.1-.5.1-.1.2-.3.4-.4.1-.1.2-.2.2-.4v-.4c-.1-.1-.6-1.3-.8-1.8 0-.7-.2-.7-.4-.7h-.5c-.2 0-.4.1-.7.3-.2.3-.8.9-.8 2.1 0 1.2.9 2.4 1 2.6.1.2 1.7 2.7 4.2 3.7.6.3 1.1.4 1.4.5.6.2 1.1.2 1.6.1s1.5-.6 1.7-1.2c.2-.5.2-1 .1-1.1z"/></symbol><symbol id="wordpress" viewBox="0 0 24 24"><path d="M12.2 12.8l-2.7 7.8c.8.2 1.7.4 2.5.4 1 0 2.1-.2 3-.5 0 0 0-.1-.1-.1l-2.7-7.6zM3 12c0 3.6 2.1 6.6 5.1 8.1L3.8 8.3C3.3 9.5 3 10.7 3 12zm15.1-.5c0-1.1-.4-1.9-.7-2.5-.5-.7-.9-1.4-.9-2.1 0-.8.6-1.6 1.5-1.6h.1C16.5 3.9 14.3 3 12 3 8.9 3 6.1 4.6 4.5 7.1h.6C6 7.1 7.5 7 7.5 7c.5 0 .5.7.1.7 0 0-.5.1-1 .1l3.3 9.7 2-5.9-1.4-3.8c-.5 0-.9-.1-.9-.1-.7 0-.6-.8-.2-.7 0 0 1.5.1 2.4.1.9 0 2.4-.1 2.4-.1.5 0 .5.7.1.7 0 0-.5.1-1 .1l3.3 9.7.9-3c.3-1.2.6-2.2.6-3zm1.8-3.8c0 .3.1.6.1.9 0 .9-.2 1.9-.7 3.2l-2.7 7.9c2.7-1.6 4.5-4.5 4.5-7.8-.1-1.5-.5-2.9-1.2-4.2zM12 22C6.5 22 2 17.5 2 12S6.5 2 12 2s10 4.5 10 10-4.5 10-10 10z"/></symbol><symbol id="xanga" viewBox="0 0 24 24"><path d="M9 9h6v6H9V9zM3 9h6V3H3v6zm12 0h6V3h-6v6zm0 12h6v-6h-6v6zM3 21h6v-6H3v6z"/></symbol><symbol id="youtube" viewBox="0 0 24 24"><path d="M21.8 8s-.2-1.4-.8-2c-.8-.8-1.6-.8-2-.8-2.8-.2-7-.2-7-.2s-4.2 0-7 .2c-.4 0-1.2 0-2 .8-.6.6-.8 2-.8 2S2 9.6 2 11.2v1.5c0 1.7.2 3.3.2 3.3s.2 1.4.8 2c.8.8 1.8.8 2.2.9 1.6.1 6.8.1 6.8.1s4.2 0 7-.2c.4 0 1.2 0 2-.8.6-.6.8-2 .8-2s.2-1.6.2-3.2v-1.5c0-1.7-.2-3.3-.2-3.3zM9.9 14.6V9l5.4 2.8-5.4 2.8z"/></symbol></svg>