<?xml version="1.0" encoding="utf-8"?>
<!-- Generator: Adobe Illustrator 19.2.1, SVG Export Plug-In . SVG Version: 6.00 Build 0)  -->
<svg version="1.1" id="Layer_1" xmlns="http://www.w3.org/2000/svg" xmlns:xlink="http://www.w3.org/1999/xlink" x="0px" y="0px"
	 viewBox="0 0 24 24" style="enable-background:new 0 0 24 24;" xml:space="preserve">
<g>
	<path d="M13.6,8.2c-1.6,0.2-3.8,0.3-5.3,1c-1.8,0.8-3,2.3-3,4.6c0,3,1.9,4.4,4.3,4.4c2,0,3.1-0.5,4.7-2.1c0.5,0.7,0.7,1.1,1.6,1.9
		c0.2,0.1,0.5,0.1,0.7-0.1l0,0c0.6-0.5,1.6-1.4,2.2-1.9c0.2-0.2,0.2-0.5,0-0.8c-0.5-0.7-1.1-1.3-1.1-2.6V8.3c0-1.9,0.1-3.6-1.2-4.9
		C15.2,2.4,13.4,2,12,2C9.3,2,6.3,3,5.7,6.3C5.6,6.7,5.9,6.9,6.1,6.9l2.8,0.3c0.3,0,0.4-0.3,0.5-0.5C9.6,5.6,10.6,5,11.6,5
		c0.6,0,1.2,0.2,1.6,0.7c0.4,0.6,0.3,1.4,0.3,2.1C13.6,7.8,13.6,8.2,13.6,8.2z M13,14.1c-0.5,0.8-1.2,1.3-2,1.3
		c-1.1,0-1.7-0.8-1.7-2.1c0-2.4,2.2-2.9,4.2-2.9v0.6C13.6,12.2,13.6,13.1,13,14.1L13,14.1z M20.7,19.3C18.3,21.1,14.9,22,12,22
		c-4.1,0-7.8-1.5-10.6-4.1c-0.2-0.2,0-0.5,0.2-0.3c3,1.8,6.8,2.8,10.6,2.8c2.6,0,5.5-0.5,8.1-1.7C20.7,18.6,21.1,19,20.7,19.3
		L20.7,19.3z M21.3,21c-0.2,0.2-0.4,0.1-0.3-0.1c0.3-0.7,0.9-2.3,0.6-2.7c-0.3-0.4-2-0.2-2.8-0.1c-0.2,0-0.3-0.2-0.1-0.3
		c1.4-0.9,3.6-0.7,3.8-0.4C22.9,17.8,22.6,20,21.3,21L21.3,21z"/>
</g>
</svg>
