<?xml version="1.0" encoding="utf-8"?>
<!-- Generator: Adobe Illustrator 19.2.1, SVG Export Plug-In . SVG Version: 6.00 Build 0)  -->
<svg version="1.1" id="Layer_1" xmlns="http://www.w3.org/2000/svg" xmlns:xlink="http://www.w3.org/1999/xlink" x="0px" y="0px"
	 viewBox="0 0 24 24" style="enable-background:new 0 0 24 24;" xml:space="preserve">
<g>
	<path d="M7.8,5.7c0.6,0,1.1,0.1,1.6,0.2c0.5,0.1,0.9,0.3,1.2,0.5c0.3,0.2,0.6,0.5,0.8,0.9c0.2,0.4,0.3,0.9,0.3,1.4
		c0,0.6-0.1,1.1-0.4,1.6c-0.3,0.4-0.7,0.8-1.3,1c0.8,0.2,1.3,0.6,1.7,1.1c0.4,0.6,0.6,1.2,0.6,2c0,0.6-0.1,1.2-0.4,1.6
		c-0.2,0.5-0.6,0.8-1,1.1c-0.4,0.3-0.9,0.5-1.4,0.6C9.1,17.9,8.5,18,8,18H2V5.7H7.8 M7.5,10.7c0.5,0,0.9-0.1,1.2-0.3
		C9,10.1,9.1,9.7,9.1,9.2c0-0.3-0.1-0.5-0.2-0.7C8.8,8.3,8.7,8.2,8.5,8.1C8.4,8,8.2,7.9,7.9,7.9c-0.2,0-0.5-0.1-0.7-0.1H4.7v2.9
		C4.7,10.7,7.4,10.7,7.5,10.7z M7.6,15.9c0.3,0,0.5,0,0.8-0.1c0.2-0.1,0.5-0.1,0.6-0.3c0.2-0.1,0.3-0.3,0.4-0.5
		c0.1-0.2,0.2-0.5,0.2-0.8c0-0.6-0.2-1.1-0.5-1.4c-0.4-0.3-0.8-0.4-1.4-0.4H4.7v3.4L7.6,15.9L7.6,15.9z M16.2,15.9
		c0.4,0.4,0.9,0.5,1.6,0.5c0.5,0,0.9-0.1,1.3-0.4c0.4-0.2,0.6-0.5,0.7-0.8h2.2c-0.3,1.1-0.9,1.8-1.6,2.3c-0.7,0.5-1.6,0.7-2.6,0.7
		c-0.7,0-1.3-0.1-1.9-0.3c-0.6-0.2-1-0.5-1.4-1c-0.4-0.4-0.7-0.9-0.9-1.5c-0.2-0.6-0.3-1.2-0.3-1.9c0-0.7,0.1-1.3,0.3-1.9
		c0.2-0.6,0.5-1.1,0.9-1.5c0.4-0.4,0.9-0.8,1.4-1C16.4,9,17,8.8,17.7,8.8c0.8,0,1.4,0.1,2,0.4c0.6,0.3,1,0.7,1.4,1.2
		c0.4,0.5,0.6,1.1,0.8,1.7c0.2,0.6,0.2,1.3,0.2,2h-6.4C15.6,14.8,15.8,15.5,16.2,15.9 M19,11.2c-0.3-0.3-0.8-0.5-1.4-0.5
		c-0.4,0-0.7,0.1-1,0.2c-0.3,0.1-0.5,0.3-0.6,0.5c-0.2,0.2-0.3,0.4-0.3,0.6c-0.1,0.2-0.1,0.4-0.1,0.6h4C19.5,12,19.3,11.5,19,11.2z
		 M15.1,7.7h5V6.5h-5C15.1,6.5,15.1,7.7,15.1,7.7z"/>
</g>
</svg>
