<?xml version="1.0" encoding="utf-8"?>
<!-- Generator: Adobe Illustrator 19.2.1, SVG Export Plug-In . SVG Version: 6.00 Build 0)  -->
<svg version="1.1" id="Layer_1" xmlns="http://www.w3.org/2000/svg" xmlns:xlink="http://www.w3.org/1999/xlink" x="0px" y="0px"
	 viewBox="0 0 24 24" style="enable-background:new 0 0 24 24;" xml:space="preserve">
<g>
	<path d="M19.8,9.9h-1c-0.6,0-1.1-0.5-1.2-1.1l0,0C17.6,5.6,15,3,11.8,3H8.9C5.7,3,3.1,5.6,3.1,8.8v6.4c0,3.2,2.6,5.8,5.8,5.8h6.3
		c3.2,0,5.8-2.6,5.8-5.8l0-4.1C20.9,10.4,20.4,9.9,19.8,9.9z M8.7,7.7H12c0.6,0,1.1,0.5,1.1,1.1c0,0.6-0.5,1.1-1.1,1.1H8.7
		c-0.6,0-1.1-0.5-1.1-1.1C7.6,8.2,8.1,7.7,8.7,7.7L8.7,7.7z M15.3,16.4H8.7c-0.6,0-1.1-0.5-1.1-1.1s0.5-1.1,1.1-1.1h6.6
		c0.6,0,1.1,0.5,1.1,1.1S15.9,16.4,15.3,16.4L15.3,16.4z"/>
</g>
</svg>
