<?xml version="1.0" encoding="utf-8"?>
<!-- Generator: Adobe Illustrator 19.2.1, SVG Export Plug-In . SVG Version: 6.00 Build 0)  -->
<svg version="1.1" id="Layer_1" xmlns="http://www.w3.org/2000/svg" xmlns:xlink="http://www.w3.org/1999/xlink" x="0px" y="0px"
	 viewBox="0 0 24 24" style="enable-background:new 0 0 24 24;" xml:space="preserve">
<g>
	<path d="M14.7,14c0,0.4-0.3,0.7-0.7,0.7H10c-0.4,0-0.7-0.3-0.7-0.7s0.3-0.7,0.7-0.7h4.1C14.4,13.4,14.7,13.7,14.7,14L14.7,14z
		 M10,10.7h2c0.4,0,0.7-0.3,0.7-0.7S12.4,9.3,12,9.3h-2c-0.4,0-0.7,0.3-0.7,0.7S9.6,10.7,10,10.7L10,10.7z M21,5v14c0,1.1-0.9,2-2,2
		H5c-1.1,0-2-0.9-2-2V5c0-1.1,0.9-2,2-2h14C20.1,3,21,3.9,21,5z M17.5,11.4c0-0.4-0.3-0.7-0.7-0.7h-0.6c-0.4,0-0.7-0.3-0.7-0.7v0
		c0-2-1.6-3.6-3.6-3.6h-1.8c-2,0-3.6,1.6-3.6,3.6v3.9c0,2,1.6,3.6,3.6,3.6h3.9c2,0,3.6-1.6,3.6-3.6C17.5,13.9,17.5,11.4,17.5,11.4z"
		/>
</g>
</svg>
