<?xml version="1.0" encoding="utf-8"?>
<!-- Generator: Adobe Illustrator 19.2.1, SVG Export Plug-In . SVG Version: 6.00 Build 0)  -->
<svg version="1.1" id="Layer_1" xmlns="http://www.w3.org/2000/svg" xmlns:xlink="http://www.w3.org/1999/xlink" x="0px" y="0px"
	 viewBox="0 0 24 24" style="enable-background:new 0 0 24 24;" xml:space="preserve">
<g>
	<path d="M22,8.8L22,8.8l0-0.1c0,0,0,0,0,0l0-0.1l0,0c0,0,0,0,0-0.1c0,0,0,0,0,0l0-0.1l0,0l0,0c0,0,0,0,0,0c0,0,0,0,0,0l0,0
		c0,0,0,0,0,0l-9.2-6.1c-0.3-0.2-0.7-0.2-1,0L2.4,8.2c0,0,0,0,0,0l0,0l0,0c0,0,0,0,0,0c0,0,0,0,0,0c0,0,0,0,0,0c0,0,0,0,0,0.1l0,0
		l0,0.1l0,0c0,0,0,0,0,0.1c0,0,0,0,0,0c0,0,0,0,0,0.1c0,0,0,0,0,0c0,0,0,0.1,0,0.1V15c0,0,0,0.1,0,0.1c0,0,0,0,0,0c0,0,0,0,0,0.1
		c0,0,0,0,0,0c0,0,0,0,0,0.1l0,0c0,0,0,0,0,0.1c0,0,0,0,0,0l0,0.1l0,0c0,0,0,0,0,0l0,0c0,0,0,0,0,0l0,0l0,0l9.2,6.1
		c0.1,0.1,0.3,0.1,0.5,0.1s0.3,0,0.5-0.1l9.2-6.1l0,0c0,0,0,0,0,0c0,0,0,0,0,0c0,0,0,0,0,0c0,0,0,0,0,0l0,0l0-0.1l0,0l0-0.1
		c0,0,0,0,0,0l0-0.1c0,0,0,0,0,0c0,0,0,0,0-0.1l0,0c0,0,0-0.1,0-0.1V9C22,8.9,22,8.9,22,8.8L22,8.8z M12.9,4.5L19.6,9l-3,2l-3.7-2.5
		V4.5L12.9,4.5z M11.1,4.5v4L7.4,11l-3-2C4.4,9,11.1,4.5,11.1,4.5z M3.7,10.6L5.9,12l-2.2,1.4L3.7,10.6L3.7,10.6z M11.1,19.5L4.4,15
		l3-2l3.7,2.5L11.1,19.5L11.1,19.5z M12,14l-3-2l3-2l3,2L12,14L12,14z M12.9,19.5v-4l3.7-2.5l3,2L12.9,19.5L12.9,19.5z M20.3,13.4
		L18.1,12l2.2-1.4L20.3,13.4L20.3,13.4z"/>
</g>
</svg>
