<?xml version="1.0" encoding="utf-8"?>
<!-- Generator: Adobe Illustrator 19.2.1, SVG Export Plug-In . SVG Version: 6.00 Build 0)  -->
<svg version="1.1" id="Layer_1" xmlns="http://www.w3.org/2000/svg" xmlns:xlink="http://www.w3.org/1999/xlink" x="0px" y="0px"
	 viewBox="0 0 24 24" style="enable-background:new 0 0 24 24;" xml:space="preserve">
<g>
	<path d="M12,22C6.5,22,2,17.5,2,12S6.5,2,12,2s10,4.5,10,10S17.5,22,12,22z M20.4,13.4c-0.3-0.1-2.6-0.8-5.3-0.4
		c1.1,3.1,1.6,5.6,1.7,6.1C18.7,17.8,20.1,15.7,20.4,13.4L20.4,13.4z M15.3,19.9c-0.1-0.8-0.6-3.4-1.8-6.5c0,0,0,0-0.1,0
		c-4.8,1.7-6.5,5-6.7,5.3c1.4,1.1,3.3,1.8,5.2,1.8C13.2,20.6,14.3,20.3,15.3,19.9L15.3,19.9z M5.7,17.7c0.2-0.3,2.5-4.2,6.9-5.6
		c0.1,0,0.2-0.1,0.3-0.1c-0.2-0.5-0.4-1-0.7-1.4c-4.3,1.3-8.4,1.2-8.8,1.2c0,0.1,0,0.2,0,0.3C3.5,14.2,4.3,16.2,5.7,17.7L5.7,17.7z
		 M3.6,10.3c0.4,0,3.9,0,7.9-1c-1.4-2.5-2.9-4.6-3.2-4.9C6,5.4,4.2,7.6,3.6,10.3L3.6,10.3z M10,3.7c0.2,0.3,1.8,2.4,3.2,5
		c3-1.1,4.3-2.9,4.5-3.1c-1.5-1.3-3.5-2.2-5.7-2.2C11.3,3.5,10.6,3.6,10,3.7L10,3.7z M18.6,6.6C18.4,6.9,17,8.7,13.8,10
		c0.2,0.4,0.4,0.8,0.6,1.2l0.2,0.4c2.8-0.4,5.7,0.2,5.9,0.3C20.5,9.9,19.8,8.1,18.6,6.6L18.6,6.6z"/>
</g>
</svg>
