<?xml version="1.0" encoding="utf-8"?>
<!-- Generator: Adobe Illustrator 19.2.1, SVG Export Plug-In . SVG Version: 6.00 Build 0)  -->
<svg version="1.1" id="Layer_1" xmlns="http://www.w3.org/2000/svg" xmlns:xlink="http://www.w3.org/1999/xlink" x="0px" y="0px"
	 viewBox="0 0 24 24" style="enable-background:new 0 0 24 24;" xml:space="preserve">
<g>
	<path d="M12,6.1L6.1,9.8L2,6.5l5.9-3.8L12,6.1z M2,13.1l5.9,3.8l4.1-3.4L6.1,9.8L2,13.1z M12,13.5l4.1,3.4l5.9-3.8l-4.1-3.3
		L12,13.5L12,13.5z M22,6.5l-5.9-3.8L12,6.1l5.9,3.7L22,6.5L22,6.5z M12,14.2l-4.1,3.4l-1.8-1.2v1.3l5.9,3.5l5.9-3.5v-1.3l-1.8,1.2
		L12,14.2L12,14.2z"/>
</g>
</svg>
