<?xml version="1.0" encoding="utf-8"?>
<!-- Generator: Adobe Illustrator 19.2.1, SVG Export Plug-In . SVG Version: 6.00 Build 0)  -->
<svg version="1.1" id="Layer_1" xmlns="http://www.w3.org/2000/svg" xmlns:xlink="http://www.w3.org/1999/xlink" x="0px" y="0px"
	 viewBox="0 0 24 24" style="enable-background:new 0 0 24 24;" xml:space="preserve">
<g>
	<path d="M18,3.9L6,3C4.3,3,3,4.3,3,6V18c0,1.6,1.3,3,3,3L18,20.1c1.7-0.1,3-1.3,3-3V6.9C21,5.3,19.7,4,18,3.9z M16.9,8.2
		c-0.1,0.2-0.2,0.4-0.4,0.6c-0.2,0.1-0.5,0.1-0.8,0.1c-1.5,0-3.1,0-4.6,0c-0.2,0.7-0.3,1.4-0.5,2.1c0.9,0,1.9,0,2.8,0
		c0.7,0,1.5-0.1,1.6,0.5c0,0.2,0,0.4-0.1,0.6c-0.1,0.4-0.3,0.7-0.6,0.8c-0.2,0.1-0.4,0.1-0.6,0.1c-1.1,0-2.3,0-3.5,0
		c-0.2,0.8-0.3,1.6-0.5,2.3c1.6,0,3.1,0,4.6-0.1c0.6,0,1.1,0.2,1,0.8c0,0.3-0.1,0.5-0.2,0.7c-0.1,0.2-0.2,0.4-0.5,0.5
		c-0.2,0.1-0.5,0.1-0.9,0.1c-0.3,0-0.6,0-0.9,0c-0.3,0-0.6,0-0.9,0c-1.3,0-2.4,0.1-3.7,0.1c-0.6,0-1-0.2-1.1-0.8
		c-0.1-0.3,0-0.6,0-0.8c0.5-2.6,1.1-5.2,1.6-7.8C8.9,7.8,9,7.6,9.1,7.4c0.2-0.3,0.4-0.5,0.8-0.6c0.4-0.1,0.9,0,1.3,0
		c0.3,0,0.6,0,0.9,0c0.9,0,1.8,0,2.7,0.1c0.3,0,0.6,0,0.9,0c0.6,0,1.2,0.1,1.2,0.6C17.1,7.7,17,8,16.9,8.2L16.9,8.2z"/>
</g>
</svg>
