<?xml version="1.0" encoding="utf-8"?>
<!-- Generator: Adobe Illustrator 19.2.1, SVG Export Plug-In . SVG Version: 6.00 Build 0)  -->
<svg version="1.1" id="Layer_1" xmlns="http://www.w3.org/2000/svg" xmlns:xlink="http://www.w3.org/1999/xlink" x="0px" y="0px"
	 viewBox="0 0 24 24" style="enable-background:new 0 0 24 24;" xml:space="preserve">
<g>
	<path d="M17.6,2H6.9C6.9,2,5,3.1,5,3.8v16.9c0,0.8,0.4,1.1,0.7,1.2c0.2,0.1,0.9,0.2,1.3-0.3c0,0,5-5.8,5.1-5.9
		c0.1-0.1,0.1-0.1,0.3-0.1h3.3c1.4,0,1.6-1,1.7-1.6c0.1-0.3,0.7-3.4,1.2-6.1l0.7-3.4C19.6,2.9,19.1,2,17.6,2L17.6,2z M16.5,7.2
		c-0.1,0.3-0.4,0.5-0.7,0.5h-4.2c-0.5,0-0.8,0.3-0.8,0.8V9c0,0.5,0.3,0.8,0.8,0.8h3.5c0,0,0.7,0.4,0.6,0.7s-0.4,2.1-0.4,2.3
		c0,0.2-0.3,0.5-0.7,0.5h-2.9c-0.5,0-0.7,0.1-1,0.5c-0.4,0.4-3.5,4.2-3.5,4.2c0,0-0.1,0-0.1,0V4.9c0-0.3,0.3-0.6,0.6-0.6h8.6
		c0.3,0,0.6,0.3,0.5,0.7L16.5,7.2L16.5,7.2z"/>
</g>
</svg>
