<?xml version="1.0" encoding="utf-8"?>
<!-- Generator: Adobe Illustrator 19.2.1, SVG Export Plug-In . SVG Version: 6.00 Build 0)  -->
<svg version="1.1" id="Layer_1" xmlns="http://www.w3.org/2000/svg" xmlns:xlink="http://www.w3.org/1999/xlink" x="0px" y="0px"
	 viewBox="0 0 24 24" style="enable-background:new 0 0 24 24;" xml:space="preserve">
<g>
	<path d="M12,2C6.5,2,2,6.5,2,12s4.5,10,10,10s10-4.5,10-10S17.5,2,12,2z M10.1,16C7.8,16,6,14.2,6,12s1.8-4.1,4.1-4.1
		c1.1,0,2,0.4,2.7,1.1l-1.1,1.1c-0.3-0.3-0.8-0.6-1.6-0.6c-1.3,0-2.4,1.1-2.4,2.5s1.1,2.5,2.4,2.5c1.6,0,2.1-1.1,2.2-1.7h-2.2v-1.5
		h3.8c0.1,0.3,0.1,0.5,0.1,0.8C14,14.4,12.4,16.1,10.1,16L10.1,16z M19,12.7h-1.2V14h-1.5v-1.2H15v-1.5h1.2V10h1.5v1.2H19
		C19,11.2,19,12.8,19,12.7z"/>
</g>
</svg>
