<?xml version="1.0" encoding="utf-8"?>
<!-- Generator: Adobe Illustrator 19.2.1, SVG Export Plug-In . SVG Version: 6.00 Build 0)  -->
<svg version="1.1" id="Layer_1" xmlns="http://www.w3.org/2000/svg" xmlns:xlink="http://www.w3.org/1999/xlink" x="0px" y="0px"
	 viewBox="0 0 24 24" style="enable-background:new 0 0 24 24;" xml:space="preserve">
<g>
	<path d="M8,11h6.6c0.1,0.4,0.1,0.7,0.1,1.2c0,4-2.7,6.8-6.7,6.8c-3.9,0-7-3.1-7-7s3.1-7,7-7c1.9,0,3.5,0.7,4.7,1.8l-1.9,1.8
		C10.3,8.2,9.4,7.6,8,7.6c-2.4,0-4.3,2-4.3,4.4s1.9,4.4,4.3,4.4c2.8,0,3.8-2,4-3H8V11z M23,11h-2V9h-2v2h-2v2h2v2h2v-2h2"/>
</g>
</svg>
