<svg xmlns="http://www.w3.org/2000/svg" class="hide"><symbol id="email" viewBox="0 0 32 32"><title>email</title><g fill-rule="evenodd"><path d="M12.627 16.254L5.862 25h20.32L19.4 16.23l-3.12 2.793-.28.25-.28-.25-3.093-2.77zm-.73-.653L5 24.52V9.427l6.898 6.174zM6.006 9h19.99L16 18.067 6.005 9zM27 9.427v15.035l-6.872-8.884L27 9.428z"/></g></symbol><symbol id="facebook" viewBox="0 0 32 32"><title>facebook</title><g fill-rule="evenodd"><path d="M17.584 12.958v-2.543-.17c0-1.023.224-1.64 1.617-1.64 1.292 0 2.475.008 2.475.008l.09-3.47S20.608 5 19.042 5c-3.87 0-5.55 2.29-5.55 4.783v3.175h-2.84v3.716h2.84V27h4.092V16.674H21.6l.186-3.716h-4.202z"/></g></symbol><symbol id="feed" viewBox="0 0 32 32"><title>feed</title><g fill-rule="evenodd"><path d="M7 13.333V16.5c5.24 0 9.5 4.26 9.5 9.5h3.167c0-6.995-5.672-12.667-12.667-12.667zM7 7v3.167c8.73 0 15.833 7.103 15.833 15.833H26C26 15.507 17.493 7 7 7zm2.375 14.25a2.375 2.375 0 1 0 0 4.75 2.375 2.375 0 0 0 0-4.75z"/></g></symbol><symbol id="flickr" viewBox="0 0 32 32"><title>flickr</title><g fill-rule="evenodd"><path d="M21.57 11a5.174 5.174 0 0 0-5.175 5.175 5.174 5.174 0 0 0 5.175 5.174 5.174 5.174 0 0 0 5.175-5.175A5.174 5.174 0 0 0 21.57 11zm-11.145 0a5.175 5.175 0 1 0 0 10.35 5.175 5.175 0 0 0 0-10.35z"/></g></symbol><symbol id="instagram" viewBox="0 0 32 32"><title>instagram</title><g fill-rule="evenodd"><path d="M23.5 5.5h-15a3 3 0 0 0-3 3v15a3 3 0 0 0 3 3h15a3 3 0 0 0 3-3v-15a3 3 0 0 0-3-3zm-7.5 6a4.5 4.5 0 1 1 0 9 4.5 4.5 0 0 1 0-9zm9 12c0 .83-.67 1.5-1.5 1.5h-15A1.5 1.5 0 0 1 7 23.5v-9h3.213A5.89 5.89 0 0 0 10 16a6 6 0 0 0 12 0c0-.522-.088-1.018-.213-1.5H25v9zM25 10a1.5 1.5 0 0 1-1.5 1.5H22a1.5 1.5 0 0 1-1.5-1.5V8.5c0-.828.67-1.5 1.5-1.5h1.5c.83 0 1.5.672 1.5 1.5V10z"/></g></symbol><symbol id="pinterest" viewBox="0 0 32 32"><title>pinterest</title><g fill-rule="evenodd"><path d="M16 5C9.925 5 5 9.925 5 16c0 4.503 2.71 8.375 6.585 10.076-.03-.77-.006-1.69.192-2.526l1.415-5.994s-.352-.702-.352-1.74c0-1.63.946-2.848 2.122-2.848 1 0 1.483.75 1.483 1.652 0 1.005-.642 2.51-.972 3.903-.275 1.166.586 2.118 1.737 2.118 2.086 0 3.487-2.675 3.487-5.847 0-2.41-1.624-4.216-4.577-4.216-3.336 0-5.415 2.49-5.415 5.27 0 .957.283 1.633.724 2.155.203.242.232.338.16.615-.055.2-.176.69-.227.882-.072.278-.298.376-.55.273-1.537-.626-2.252-2.31-2.252-4.202 0-3.124 2.637-6.87 7.863-6.87 4.2 0 6.963 3.038 6.963 6.3 0 4.315-2.4 7.54-5.934 7.54-1.188 0-2.305-.643-2.688-1.373 0 0-.638 2.536-.774 3.025-.234.85-.69 1.696-1.107 2.356.99.294 2.033.452 3.117.452 6.076 0 11-4.924 11-11 0-6.075-4.924-11-11-11z"/></g></symbol><symbol id="press-this" viewBox="0 0 32 32"><title>press-this</title><g fill-rule="evenodd"><path d="M16 4.57C9.698 4.57 4.57 9.7 4.57 16S9.7 27.43 16 27.43 27.43 22.3 27.43 16 22.3 4.57 16 4.57zM5.725 16c0-1.49.32-2.904.89-4.182l4.902 13.43A10.278 10.278 0 0 1 5.725 16zM16 26.275c-1.008 0-1.982-.147-2.903-.418l3.084-8.96 3.158 8.654c.02.05.047.098.073.143a10.247 10.247 0 0 1-3.41.582zm1.416-15.093c.618-.032 1.176-.097 1.176-.097.553-.066.488-.88-.065-.847 0 0-1.664.13-2.738.13-1.01 0-2.708-.13-2.708-.13-.554-.032-.62.813-.066.847 0 0 .525.065 1.078.097l1.6 4.386-2.248 6.744-3.742-11.13c.62-.032 1.176-.097 1.176-.097.553-.066.488-.88-.065-.847 0 0-1.664.13-2.738.13-.194 0-.42-.005-.662-.013A10.266 10.266 0 0 1 16 5.725c2.675 0 5.11 1.022 6.938 2.698-.044-.002-.088-.008-.132-.008-1.01 0-1.726.88-1.726 1.824 0 .846.49 1.562 1.01 2.41.39.684.846 1.563.846 2.833 0 .88-.338 1.9-.782 3.322L21.13 22.23 17.415 11.18zm7.6-.112A10.223 10.223 0 0 1 26.274 16c0 3.79-2.055 7.1-5.108 8.88l3.138-9.074c.586-1.467.782-2.638.782-3.68 0-.377-.025-.728-.07-1.056z"/></g></symbol><symbol id="print" viewBox="0 0 32 32"><title>print</title><g fill-rule="evenodd"><g><path d="M23 21h4v-8H5v8h4v-4h14v4zM10 8h12v4H10z"/><path d="M10 18h12v8H10z"/></g></g></symbol><symbol id="search" viewBox="0 0 32 32"><title>search</title><g fill-rule="evenodd"><path d="M12.5 21a8.5 8.5 0 1 0 0-17 8.5 8.5 0 0 0 0 17zm0-2a6.5 6.5 0 1 0 0-13 6.5 6.5 0 0 0 0 13z"/><path d="M16.707 18.12l1.414-1.413 8.315 6.9-2.828 2.828-6.9-8.314z"/></g></symbol><symbol id="twitter" viewBox="0 0 32 32"><title>twitter</title><g fill-rule="evenodd"><path d="M24.41 10.292a4.552 4.552 0 0 0 1.982-2.516c-.87.52-1.837.9-2.863 1.103a4.496 4.496 0 0 0-3.298-1.437c-2.492 0-4.513 2.037-4.513 4.548 0 .357.04.704.117 1.036-3.75-.19-7.078-2-9.305-4.75a4.563 4.563 0 0 0-.61 2.287 4.55 4.55 0 0 0 2.006 3.784 4.482 4.482 0 0 1-2.045-.57v.06a4.54 4.54 0 0 0 3.62 4.46 4.52 4.52 0 0 1-2.037.076 4.518 4.518 0 0 0 4.216 3.156A9.005 9.005 0 0 1 5 23.41a12.687 12.687 0 0 0 6.917 2.045c8.304 0 12.845-6.93 12.845-12.94 0-.195-.006-.39-.015-.586A9.214 9.214 0 0 0 27 9.575a8.913 8.913 0 0 1-2.59.716z"/></g></symbol></svg>