<?xml version="1.0" encoding="utf-8"?>
<!-- Generator: Adobe Illustrator 19.2.1, SVG Export Plug-In . SVG Version: 6.00 Build 0)  -->
<svg version="1.1" id="Layer_1" xmlns="http://www.w3.org/2000/svg" xmlns:xlink="http://www.w3.org/1999/xlink" x="0px" y="0px"
	 viewBox="0 0 24 24" style="enable-background:new 0 0 24 24;" xml:space="preserve">
<g>
	<path d="M17.2,16.4c-0.7,0.3-1.5,0.6-2.3,0.6c-0.9,0-1.8,0-2.6-0.4v1.8c0,2.3-1,3.7-3.4,3.7c-0.7,0-2-0.2-2.4-0.8v-2.8
		c0.4,0.4,0.9,0.7,1.5,0.7c0.6,0,1-0.4,1-1V8.3h3.3v5.7c0.5,0.2,1.1,0.3,1.7,0.3c2.1,0,3.8-1.4,3.8-3.6c0-3.4-2.9-4.7-6-4.7
		C9,6,6.1,7.6,6.1,10.8c0,1,0.2,1.7,0.9,2.4l-2.4,2C3.3,13.8,3,12.7,3,10.8C3,5.8,7.1,3,11.7,3c4.7,0,9.3,2.4,9.3,7.6
		C21,13.2,19.5,15.3,17.2,16.4L17.2,16.4z"/>
</g>
</svg>
