<?xml version="1.0" encoding="utf-8"?>
<!-- Generator: Adobe Illustrator 19.2.1, SVG Export Plug-In . SVG Version: 6.00 Build 0)  -->
<svg version="1.1" id="Layer_1" xmlns="http://www.w3.org/2000/svg" xmlns:xlink="http://www.w3.org/1999/xlink" x="0px" y="0px"
	 viewBox="0 0 24 24" style="enable-background:new 0 0 24 24;" xml:space="preserve">
<g>
	<path d="M12.3,2C6.6,2,3.6,5.6,3.6,9.6c0,1.8,1,4.1,2.7,4.9c0.2,0.1,0.4,0.1,0.4-0.2c0-0.2,0.3-1,0.4-1.4c0-0.1,0-0.2-0.1-0.4
		c-0.5-0.6-1-1.8-1-2.9c0-2.8,2.2-5.5,5.9-5.5c3.2,0,5.5,2.1,5.5,5.1c0,3.4-1.8,5.8-4.1,5.8c-1.3,0-2.3-1-1.9-2.3
		c0.4-1.5,1.1-3.1,1.1-4.2c0-1-0.5-1.8-1.7-1.8c-1.3,0-2.4,1.3-2.4,3.1c0,1.1,0.4,1.9,0.4,1.9S7.5,17.1,7.3,18
		c-0.4,1.7,0.1,4.4,0.1,4.6c0,0.1,0.2,0.2,0.2,0.1c0.1-0.2,1.7-2.4,2.1-4c0.2-0.6,0.8-3,0.8-3c0.4,0.8,1.7,1.4,3,1.4
		c4,0,6.8-3.5,6.8-7.8C20.4,5.1,16.9,2,12.3,2"/>
</g>
</svg>
