<?xml version="1.0" encoding="utf-8"?>
<!-- Generator: Adobe Illustrator 19.2.1, SVG Export Plug-In . SVG Version: 6.00 Build 0)  -->
<svg version="1.1" id="Layer_1" xmlns="http://www.w3.org/2000/svg" xmlns:xlink="http://www.w3.org/1999/xlink" x="0px" y="0px"
	 viewBox="0 0 24 24" style="enable-background:new 0 0 24 24;" xml:space="preserve">
<g>
	<path d="M21.9,4.2C21.7,3.5,21,3,20.2,3H3.8C3.1,3,2.4,3.5,2.1,4.2C2.1,4.4,2,4.6,2,4.8v6L2.1,12c0.3,2.7,1.7,5.1,3.9,6.8l0.1,0.1
		l0,0c1.2,0.9,2.5,1.4,3.9,1.7c0.7,0.1,1.3,0.2,2,0.2c0.6,0,1.2-0.1,1.8-0.2c0.1,0,0.1,0,0.2,0c0,0,0,0,0.1,0
		c1.4-0.3,2.6-0.9,3.8-1.7l0,0c0,0,0.1-0.1,0.1-0.1c2.2-1.7,3.6-4.1,3.9-6.8l0.1-1.2v-6C22,4.6,22,4.4,21.9,4.2L21.9,4.2z
		 M17.7,10.5L13,15c-0.3,0.3-0.6,0.4-0.9,0.4c-0.3,0-0.7-0.1-0.9-0.4l-4.7-4.5c-0.5-0.5-0.6-1.4,0-1.9C6.9,8,7.7,8,8.3,8.5l3.8,3.6
		l3.8-3.6c0.5-0.5,1.4-0.5,1.9,0C18.3,9.1,18.2,10,17.7,10.5L17.7,10.5z"/>
</g>
</svg>
