<?xml version="1.0" encoding="utf-8"?>
<!-- Generator: Adobe Illustrator 19.2.1, SVG Export Plug-In . SVG Version: 6.00 Build 0)  -->
<svg version="1.1" id="Layer_1" xmlns="http://www.w3.org/2000/svg" xmlns:xlink="http://www.w3.org/1999/xlink" x="0px" y="0px"
	 viewBox="0 0 24 24" style="enable-background:new 0 0 24 24;" xml:space="preserve">
<g>
	<path d="M12,2C6.5,2,2,6.5,2,12c0,5.5,4.5,10,10,10c5.5,0,10-4.5,10-10C22,6.5,17.5,2,12,2z M13,3.7c2.4,0.1,4.7,1.2,6.2,3.1
		c0.3,0.3,0.5,0.7,0.8,1.1c-1.4-1.8-3.6-2.9-6.1-2.9c-2.4,0-4.5,1-5.9,2.7c0,0,0,0,0,0L7.8,7.8l0,0c-1,1.1-1.6,2.6-1.6,4.2
		c0,3.4,2.8,6.1,6.1,6.1c0.6,0,1.1-0.1,1.6-0.2c-1.9,0.8-4.1,0.7-5.9-0.3c-1.8-1.1-3.2-3.1-3.4-5.3c-0.3-2.2,0.5-4.5,2.1-6.2
		C8.3,4.5,10.6,3.6,13,3.7z M16.4,12.2c0-2-1.6-3.9-3.5-4.2c-1.9-0.3-3.9,0.9-4.4,2.7c-0.3,0.9-0.2,1.8,0.2,2.7
		c0.4,0.8,1.1,1.4,1.9,1.8c1.7,0.7,3.6-0.3,4.2-1.9c0.6-1.6-0.4-3.4-1.9-3.8c-1.5-0.4-3.2,0.8-3.2,2.2c-0.1,0.7,0.3,1.4,0.8,1.9
		c0.5,0.5,1.2,0.7,1.9,0.5c0.6-0.1,1.2-0.6,1.5-1.1c0.3-0.6,0.2-1.3-0.1-1.8c-0.3-0.5-0.9-0.9-1.4-0.9c-0.6,0-1.1,0.2-1.4,0.7
		c-0.3,0.4-0.4,1-0.2,1.5c0,0,0,0,0,0c0.2,0.6,0.8,1.1,1.5,1.1c-0.3,0-0.7,0-1-0.2c-0.5-0.2-0.8-0.7-0.9-1.3
		c-0.1-0.5,0.1-1.1,0.5-1.5c0.4-0.4,1-0.6,1.6-0.6c0.6,0,1.2,0.4,1.5,0.9c0.4,0.5,0.5,1.2,0.4,1.8c-0.1,0.6-0.5,1.2-1.1,1.5
		c-0.6,0.3-1.3,0.5-1.9,0.3c-0.6-0.2-1.2-0.6-1.6-1.2c-0.4-0.6-0.5-1.3-0.3-2c0.1-0.7,0.6-1.3,1.2-1.8c1.2-0.9,3.1-0.8,4.1,0.4
		c1.1,1.1,1.3,3,0.4,4.4c-0.9,1.4-2.7,2.1-4.4,1.6c-1.6-0.4-2.9-2.1-3-3.9C7.3,11.1,7.5,10.2,8,9.4C8.4,8.6,9.1,8,10,7.6
		c1.6-0.9,3.8-0.7,5.3,0.4c1.2,0.9,2.1,2.4,2.2,4v0c0,2.9-2.4,5.3-5.3,5.3c-0.7,0-1.3-0.1-1.9-0.4c0.9,0.2,1.8,0.2,2.6-0.1
		c1-0.3,1.9-0.9,2.5-1.8C16.1,14.2,16.4,13.2,16.4,12.2L16.4,12.2z M12,21.1c-5,0-9.1-4.1-9.1-9.1c0-4.8,3.7-8.7,8.4-9.1
		c-0.1,0-0.3,0-0.4,0.1c-2.6,0.5-5,2.1-6.3,4.4c-1.3,2.3-1.4,5.2-0.3,7.5c1.1,2.3,3.3,4.2,5.8,4.6c2.5,0.4,5.1-0.5,6.8-2.3
		c1.7-1.8,2.3-4.5,1.5-6.8c-0.6-1.8-2-3.3-3.7-4c3.4,0.6,6.2,3.2,6.2,6.8c0,1-0.2,2-0.7,3C18.6,19.1,15.6,21.1,12,21.1L12,21.1z"/>
</g>
</svg>
