<?xml version="1.0" encoding="utf-8"?>
<!-- Generator: Adobe Illustrator 19.2.1, SVG Export Plug-In . SVG Version: 6.00 Build 0)  -->
<svg version="1.1" id="Layer_1" xmlns="http://www.w3.org/2000/svg" xmlns:xlink="http://www.w3.org/1999/xlink" x="0px" y="0px"
	 viewBox="0 0 24 24" style="enable-background:new 0 0 24 24;" xml:space="preserve">
<g>
	<path d="M22,11.8c0-1.3-1-2.3-2.3-2.3c-0.6,0-1.1,0.2-1.5,0.6c-1.5-1-3.5-1.6-5.6-1.7l1.2-3.7l3.2,0.8c0,1,0.8,1.9,1.9,1.9
		c1,0,1.9-0.8,1.9-1.9c0-1-0.8-1.9-1.9-1.9c-0.8,0-1.4,0.5-1.7,1.1l-3.5-0.8c-0.2,0-0.4,0.1-0.5,0.3l-1.4,4.3c-2.3,0-4.4,0.7-6,1.7
		C5.4,9.8,4.9,9.5,4.3,9.5C3,9.5,2,10.6,2,11.8c0,0.8,0.4,1.5,1.1,1.9C3,14,3,14.2,3,14.4c0,3.3,4,6,8.9,6s8.9-2.7,8.9-6
		c0-0.2,0-0.4-0.1-0.6C21.5,13.4,22,12.7,22,11.8L22,11.8z M18.8,4.4c0.6,0,1.1,0.5,1.1,1.1s-0.5,1.1-1.1,1.1s-1.1-0.5-1.1-1.1
		S18.2,4.4,18.8,4.4z M2.8,11.8c0-0.8,0.7-1.5,1.5-1.5c0.3,0,0.6,0.1,0.8,0.3c-0.8,0.7-1.5,1.5-1.8,2.4C3,12.7,2.8,12.3,2.8,11.8
		L2.8,11.8z M12,19.6c-4.5,0-8.2-2.3-8.2-5.2S7.5,9.2,12,9.2s8.2,2.3,8.2,5.2S16.5,19.6,12,19.6z M20.6,13c-0.3-0.9-0.9-1.7-1.8-2.4
		c0.2-0.2,0.5-0.3,0.9-0.3c0.8,0,1.5,0.7,1.5,1.5C21.2,12.3,21,12.7,20.6,13L20.6,13z M9,14.7c-0.8,0-1.4-0.6-1.4-1.4
		s0.6-1.4,1.4-1.4s1.4,0.6,1.4,1.4C10.4,14.1,9.8,14.7,9,14.7L9,14.7z M16.4,13.3c0,0.8-0.6,1.4-1.4,1.4s-1.4-0.6-1.4-1.4
		s0.6-1.4,1.4-1.4C15.8,11.9,16.4,12.6,16.4,13.3L16.4,13.3z M15.2,16.7c0.1,0.2,0.1,0.4,0,0.5c-0.7,0.7-1.7,1-3.2,1l0,0l0,0
		c-1.5,0-2.5-0.3-3.2-1c-0.2-0.2-0.2-0.4,0-0.5c0.2-0.2,0.4-0.1,0.6,0c0.5,0.5,1.4,0.8,2.7,0.8l0,0l0,0c1.3,0,2.2-0.3,2.7-0.8
		C14.8,16.6,15.1,16.6,15.2,16.7z"/>
</g>
</svg>
