<?xml version="1.0" encoding="utf-8"?>
<!-- Generator: Adobe Illustrator 19.2.1, SVG Export Plug-In . SVG Version: 6.00 Build 0)  -->
<svg version="1.1" id="Layer_1" xmlns="http://www.w3.org/2000/svg" xmlns:xlink="http://www.w3.org/1999/xlink" x="0px" y="0px"
	 viewBox="0 0 24 24" style="enable-background:new 0 0 24 24;" xml:space="preserve">
<g>
	<path d="M12,2C6.5,2,2,6.5,2,12s4.5,10,10,10s10-4.5,10-10S17.5,2,12,2 M16.6,16.4c-0.2,0.3-0.6,0.4-0.9,0.2
		c-2.4-1.4-5.3-1.8-8.8-1c-0.3,0.1-0.7-0.1-0.7-0.5c-0.1-0.3,0.1-0.7,0.5-0.7c3.8-0.9,7.1-0.5,9.7,1.1
		C16.7,15.7,16.8,16.1,16.6,16.4 M17.8,13.7c-0.2,0.4-0.7,0.5-1.1,0.3c-2.7-1.7-6.8-2.1-10-1.2c-0.4,0.1-0.8-0.1-1-0.5
		c-0.1-0.4,0.1-0.8,0.5-1c3.6-1.1,8.1-0.6,11.2,1.3C17.9,12.9,18,13.3,17.8,13.7 M17.9,10.9C14.7,8.9,9.4,8.8,6.3,9.7
		c-0.5,0.1-1-0.1-1.2-0.6C5,8.6,5.3,8.1,5.8,7.9c3.5-1.1,9.4-0.9,13.1,1.3c0.4,0.3,0.6,0.8,0.3,1.3C18.9,11,18.4,11.1,17.9,10.9"/>
</g>
</svg>
