<?xml version="1.0" encoding="utf-8"?>
<!-- Generator: Adobe Illustrator 19.2.1, SVG Export Plug-In . SVG Version: 6.00 Build 0)  -->
<svg version="1.1" id="Layer_1" xmlns="http://www.w3.org/2000/svg" xmlns:xlink="http://www.w3.org/1999/xlink" x="0px" y="0px"
	 viewBox="0 0 24 24" style="enable-background:new 0 0 24 24;" xml:space="preserve">
<g>
	<path d="M20.9,9.3c-1.5-1.5-4-1.5-5.5,0l-6.1,6.1c-0.4,0.4-0.4,1,0,1.4c0.4,0.4,1,0.4,1.4,0l6.1-6.1c0.8-0.8,2-0.8,2.7,0
		c0.8,0.8,0.8,2,0,2.7l-6,6c0.8,0.8,2,0.8,2.7,0l4.7-4.7C22.4,13.2,22.4,10.8,20.9,9.3L20.9,9.3z M18.8,11.3c-0.4-0.4-1-0.4-1.4,0
		l-6.1,6.1c-0.8,0.8-2,0.8-2.7,0c-0.4-0.4-1-0.4-1.4,0c-0.4,0.4-0.4,1,0,1.4c1.5,1.5,3.9,1.5,5.5,0l6.1-6.1
		C19.2,12.3,19.2,11.7,18.8,11.3z M16.8,5.2c-1.5-1.5-3.9-1.5-5.5,0l-6.1,6.1c-0.4,0.4-0.4,1,0,1.4c0.4,0.4,1,0.4,1.4,0l6.1-6.1
		c0.8-0.8,2-0.8,2.7,0c0.4,0.4,1,0.4,1.4,0C17.2,6.2,17.2,5.6,16.8,5.2L16.8,5.2z M14.7,7.2c-0.4-0.4-1-0.4-1.4,0l-6.1,6.1
		c-0.8,0.8-2,0.8-2.7,0c-0.8-0.8-0.8-2,0-2.7l6-6c-0.8-0.8-2-0.8-2.7,0L3.1,9.3c-1.5,1.5-1.5,4,0,5.5c1.5,1.5,3.9,1.5,5.5,0l6.1-6.1
		C15.1,8.2,15.1,7.6,14.7,7.2L14.7,7.2z"/>
</g>
</svg>
