<?xml version="1.0" encoding="utf-8"?>
<!-- Generator: Adobe Illustrator 19.2.1, SVG Export Plug-In . SVG Version: 6.00 Build 0)  -->
<svg version="1.1" id="Layer_1" xmlns="http://www.w3.org/2000/svg" xmlns:xlink="http://www.w3.org/1999/xlink" x="0px" y="0px"
	 viewBox="0 0 24 24" style="enable-background:new 0 0 24 24;" xml:space="preserve">
<g>
	<path d="M12,2C6.5,2,2,6.5,2,12s4.5,10,10,10s10-4.5,10-10S17.5,2,12,2z M15.1,16.8c0,0-0.2,0.6-0.9,0.3l-2.5-1.9L10,16.6
		c0,0-0.1,0.1-0.3,0c0,0-0.1,0-0.3-0.5c-0.1-0.5-0.9-3-0.9-3L6,12.4c0,0-0.4-0.1-0.4-0.4c0-0.3,0.4-0.5,0.4-0.5l10-3.9
		c0,0,0.8-0.4,0.8,0.2C16.9,7.8,15.1,16.8,15.1,16.8z"/>
</g>
</svg>
