<?xml version="1.0" encoding="utf-8"?>
<!-- Generator: Adobe Illustrator 19.2.1, SVG Export Plug-In . SVG Version: 6.00 Build 0)  -->
<svg version="1.1" id="Layer_1" xmlns="http://www.w3.org/2000/svg" xmlns:xlink="http://www.w3.org/1999/xlink" x="0px" y="0px"
	 viewBox="0 0 24 24" style="enable-background:new 0 0 24 24;" xml:space="preserve">
<g>
	<path d="M19,3H5C3.9,3,3,3.9,3,5v14c0,1.1,0.9,2,2,2h14c1.1,0,2-0.9,2-2V5C21,3.9,20.1,3,19,3z M13.4,17.3c-2.4,0-3.4-1.7-3.4-3
		v-3.7H8.9V9.1c1.7-0.6,2.1-2.2,2.2-3c0-0.1,0.1-0.1,0.1-0.1h1.6v2.9h2.2v1.7h-2.3v3.5c0,0.5,0.2,1.1,1.1,1.1c0.3,0,0.7-0.1,0.9-0.2
		l0.5,1.6C15.2,16.9,14.3,17.2,13.4,17.3L13.4,17.3z"/>
</g>
</svg>
