<?xml version="1.0" encoding="utf-8"?>
<!-- Generator: Adobe Illustrator 19.2.1, SVG Export Plug-In . SVG Version: 6.00 Build 0)  -->
<svg version="1.1" id="Layer_1" xmlns="http://www.w3.org/2000/svg" xmlns:xlink="http://www.w3.org/1999/xlink" x="0px" y="0px"
	 viewBox="0 0 24 24" style="enable-background:new 0 0 24 24;" xml:space="preserve">
<g>
	<path d="M2,22l1.4-5.1c-0.9-1.5-1.3-3.2-1.3-5C2.1,6.4,6.6,2,12,2c2.7,0,5.1,1,7,2.9c1.9,1.9,2.9,4.4,2.9,7c0,5.5-4.4,9.9-9.9,9.9
		h0c-1.7,0-3.3-0.4-4.7-1.2L2,22z M7.5,18.8L7.8,19c1.3,0.8,2.7,1.1,4.2,1.1h0c4.5,0,8.2-3.7,8.2-8.2c0-2.2-0.9-4.3-2.4-5.8
		c-1.6-1.6-3.6-2.4-5.8-2.4c-4.5,0-8.2,3.7-8.2,8.2c0,1.6,0.4,3.1,1.3,4.4l0.2,0.3l-0.8,3L7.5,18.8L7.5,18.8z M17,14.3
		c-0.1-0.1-0.2-0.2-0.5-0.3c-0.2-0.1-1.5-0.7-1.7-0.8c-0.2-0.1-0.4-0.1-0.6,0.1c-0.2,0.2-0.6,0.8-0.8,1c-0.1,0.2-0.3,0.2-0.5,0.1
		c-0.2-0.1-1-0.4-2-1.2c-0.7-0.7-1.2-1.5-1.4-1.7c-0.1-0.2,0-0.4,0.1-0.5c0.1-0.1,0.2-0.3,0.4-0.4c0.1-0.1,0.2-0.2,0.2-0.4
		s0-0.3,0-0.4c-0.1-0.1-0.6-1.3-0.8-1.8C9.4,7.3,9.2,7.3,9,7.3c-0.1,0-0.3,0-0.5,0c-0.2,0-0.4,0.1-0.7,0.3C7.6,7.9,7,8.5,7,9.7
		c0,1.2,0.9,2.4,1,2.6c0.1,0.2,1.7,2.7,4.2,3.7c0.6,0.3,1.1,0.4,1.4,0.5c0.6,0.2,1.1,0.2,1.6,0.1c0.5-0.1,1.5-0.6,1.7-1.2
		C17.1,14.9,17.1,14.4,17,14.3L17,14.3z"/>
</g>
</svg>
