<?xml version="1.0" encoding="utf-8"?>
<!-- Generator: Adobe Illustrator 19.2.1, SVG Export Plug-In . SVG Version: 6.00 Build 0)  -->
<svg version="1.1" id="Layer_1" xmlns="http://www.w3.org/2000/svg" xmlns:xlink="http://www.w3.org/1999/xlink" x="0px" y="0px"
	 viewBox="0 0 24 24" style="enable-background:new 0 0 24 24;" xml:space="preserve">
<g>
	<path d="M12.2,12.8l-2.7,7.8c0.8,0.2,1.7,0.4,2.5,0.4c1,0,2.1-0.2,3-0.5c0,0,0-0.1-0.1-0.1L12.2,12.8L12.2,12.8z M3,12
		c0,3.6,2.1,6.6,5.1,8.1L3.8,8.3C3.3,9.5,3,10.7,3,12z M18.1,11.5c0-1.1-0.4-1.9-0.7-2.5c-0.5-0.7-0.9-1.4-0.9-2.1
		c0-0.8,0.6-1.6,1.5-1.6c0,0,0.1,0,0.1,0C16.5,3.9,14.3,3,12,3C8.9,3,6.1,4.6,4.5,7.1c0.2,0,0.4,0,0.6,0C6,7.1,7.5,7,7.5,7
		c0.5,0,0.5,0.7,0.1,0.7c0,0-0.5,0.1-1,0.1l3.3,9.7l2-5.9l-1.4-3.8c-0.5,0-0.9-0.1-0.9-0.1C8.9,7.7,9,6.9,9.4,7c0,0,1.5,0.1,2.4,0.1
		c0.9,0,2.4-0.1,2.4-0.1c0.5,0,0.5,0.7,0.1,0.7c0,0-0.5,0.1-1,0.1l3.3,9.7l0.9-3C17.8,13.3,18.1,12.3,18.1,11.5L18.1,11.5z
		 M19.9,7.7c0,0.3,0.1,0.6,0.1,0.9c0,0.9-0.2,1.9-0.7,3.2l-2.7,7.9c2.7-1.6,4.5-4.5,4.5-7.8C21,10.4,20.6,9,19.9,7.7L19.9,7.7z
		 M12,22C6.5,22,2,17.5,2,12S6.5,2,12,2s10,4.5,10,10S17.5,22,12,22z"/>
</g>
</svg>
